<svg width="754" height="755" viewBox="0 0 754 755" fill="none" xmlns="http://www.w3.org/2000/svg">
<path fill-rule="evenodd" clip-rule="evenodd" d="M426.067 0C428.633 30.8116 474.833 38.5145 482.533 71.8937C495.367 123.246 485.1 41.0821 503.067 92.4348C503.067 95.0024 513.333 112.976 515.9 105.273C521.033 107.841 533.867 133.517 536.433 143.787C539 154.058 539 174.599 549.267 174.599C549.267 177.167 569.8 197.708 567.233 187.437C567.233 182.302 562.1 151.49 572.367 166.896C590.333 192.572 608.3 184.87 613.433 213.114C616 225.952 654.5 251.628 664.767 267.034C675.033 279.872 682.733 269.601 680.167 290.143C680.167 290.143 749.467 341.495 703.267 326.089C669.9 315.819 703.267 323.522 723.8 356.901C731.5 372.307 736.633 367.172 746.9 395.415C752.033 408.254 754.6 403.118 757.167 418.524C754.6 408.254 744.333 359.469 746.9 359.469C759.733 367.172 782.833 418.524 800.8 431.362C813.633 439.065 793.1 439.065 805.933 428.795C816.2 421.092 836.733 500.688 839.3 505.824C867.533 528.932 870.1 552.041 888.067 570.015C900.9 582.853 924 639.341 924 636.773C918.867 608.529 921.433 603.394 903.467 577.717C898.333 570.015 898.333 546.906 882.933 518.662C880.367 513.527 867.533 480.147 875.233 485.283C913.733 513.527 867.533 462.174 867.533 457.039C854.7 415.957 823.9 392.848 816.2 354.333C813.633 344.063 767.433 295.278 749.467 290.143C734.067 285.007 703.267 228.519 698.133 210.546C693 192.572 693 213.114 695.567 220.816C700.7 238.79 677.6 195.14 667.333 184.87C641.667 164.329 644.233 174.599 626.267 143.787C618.567 130.949 587.767 151.49 582.633 128.382C577.5 100.138 574.933 100.138 600.6 107.841C605.733 107.841 600.6 89.8672 569.8 82.1643C562.1 79.5966 477.4 38.5145 472.267 33.3792C454.3 12.8382 426.067 12.8382 423.5 2.56763L426.067 0ZM248.967 51.3527C256.667 59.0556 282.333 87.2995 282.333 100.138C272.067 105.273 256.667 87.2995 284.9 112.976C313.133 138.652 318.267 210.546 343.933 246.493C359.333 267.034 349.067 287.575 356.767 246.493C361.9 220.816 341.367 213.114 369.6 254.196C390.133 285.007 387.567 290.143 423.5 305.548C451.733 318.386 426.067 313.251 426.067 320.954C436.333 369.739 444.033 362.036 469.7 395.415C485.1 413.389 415.8 431.362 472.267 426.227C513.333 423.659 497.933 433.93 508.2 444.2C508.2 444.2 526.167 482.715 544.133 498.121C549.267 503.256 551.833 521.229 564.667 534.068C590.333 559.744 569.8 516.094 590.333 536.635C603.167 549.473 598.033 595.691 626.267 593.123C644.233 590.556 641.667 611.097 659.633 608.529C664.767 608.529 680.167 649.611 705.833 644.476C716.1 641.908 708.4 670.152 741.767 680.423C744.333 680.423 785.4 726.64 798.233 731.775C811.067 736.911 859.833 793.399 821.333 744.614C811.067 729.208 808.5 721.505 790.533 703.531C782.833 695.829 762.3 667.585 759.733 654.746C757.167 641.908 726.367 603.394 716.1 593.123C713.533 618.8 734.067 626.502 703.267 580.285C693 562.312 667.333 544.338 657.067 523.797C654.5 516.094 616 518.662 605.733 457.039C628.833 451.903 623.7 462.174 600.6 439.065C590.333 428.795 564.667 410.821 559.533 397.983C551.833 382.577 546.7 382.577 544.133 377.442C528.733 380.01 513.333 349.198 510.767 333.792C508.2 318.386 469.7 310.684 477.4 241.357C479.967 231.087 462 254.196 462 256.763C462 249.06 436.333 220.816 420.933 218.249C369.6 200.275 387.567 166.896 341.367 138.652C320.833 125.814 284.9 64.1908 274.633 66.7585C272.067 66.7585 254.1 59.0556 251.533 56.4879L248.967 51.3527ZM0 61.6232C2.56667 82.1643 10.2667 107.841 28.2333 118.111C69.3 138.652 56.4667 195.14 77 190.005C94.9667 187.437 84.7 197.708 87.2667 213.114C92.4 228.519 77 236.222 102.667 233.655C112.933 233.655 107.8 259.331 125.767 267.034C148.867 277.304 141.167 285.007 148.867 308.116C148.867 308.116 141.167 344.063 159.133 315.819C164.267 308.116 151.433 344.063 182.233 341.495C205.333 341.495 202.767 385.145 241.267 390.28L264.367 421.092C256.667 423.659 248.967 418.524 243.833 415.957C241.267 433.93 295.167 446.768 310.567 467.309C323.4 485.283 328.533 464.742 336.233 498.121C338.8 505.824 449.167 600.826 438.9 593.123C431.2 587.988 428.633 562.312 405.533 546.906C397.833 541.771 361.9 498.121 359.333 490.418C356.767 482.715 356.767 446.768 351.633 446.768C325.967 436.498 282.333 403.118 277.2 374.874C269.5 336.36 210.467 346.63 213.033 320.954C218.167 318.386 233.567 326.089 223.3 313.251C207.9 292.71 207.9 310.684 184.8 269.601C174.533 251.628 154 233.655 146.3 210.546C141.167 195.14 133.467 215.681 125.767 174.599C123.2 161.761 105.233 192.572 110.367 138.652C112.933 118.111 110.367 102.705 102.667 133.517C97.5333 156.626 82.1333 128.382 66.7333 118.111C59.0333 112.976 56.4667 95.0024 30.8 79.5966C28.2333 77.029 10.2667 61.6232 2.56667 64.1908L0 61.6232ZM151.433 462.174C151.433 467.309 184.8 508.391 184.8 521.229C184.8 528.932 233.567 600.826 189.933 552.041C182.233 544.338 200.2 585.42 223.3 603.394C241.267 616.232 290.033 690.693 290.033 688.126C284.9 654.746 277.2 647.043 305.433 680.423C308 682.99 310.567 703.531 333.667 716.37C341.367 718.937 392.7 762.587 385 762.587C374.733 765.155 387.567 770.29 395.267 777.993C413.233 795.966 415.8 785.696 420.933 813.94C426.067 831.913 469.7 862.725 469.7 860.157C474.833 842.184 492.8 883.266 503.067 885.833C518.467 888.401 533.867 921.78 564.667 929.483C569.8 932.051 590.333 965.43 621.133 967.998C626.267 967.998 654.5 991.106 672.467 996.242C672.467 996.242 726.367 1014.22 693 1001.38C687.867 980.836 623.7 960.295 608.3 934.618C608.3 934.618 585.2 911.51 580.067 903.807C577.5 898.672 595.467 929.483 556.967 885.833C544.133 870.428 539 857.589 531.3 849.886C515.9 837.048 505.633 824.21 485.1 808.804C485.1 808.804 431.2 760.019 449.167 767.722C451.733 767.722 500.5 780.56 503.067 780.56C500.5 777.993 485.1 757.452 462 754.884C454.3 754.884 402.967 703.531 374.733 693.261C346.5 682.99 351.633 662.449 313.133 636.773C295.167 623.935 261.8 593.123 254.1 575.15C248.967 559.744 207.9 513.527 197.633 500.688C187.367 490.418 148.867 449.336 148.867 459.606L151.433 462.174ZM549.267 682.99C551.833 688.126 574.933 724.072 580.067 729.208C587.767 739.478 587.767 752.316 587.767 729.208C587.767 729.208 605.733 757.452 610.867 762.587C613.433 765.155 631.4 798.534 636.533 806.237C646.8 819.075 646.8 831.913 641.667 801.101C639.1 783.128 639.1 777.993 628.833 762.587C618.567 747.181 636.533 729.208 598.033 693.261C595.467 690.693 590.333 680.423 587.767 680.423C585.2 672.72 592.9 708.667 590.333 700.964C587.767 688.126 564.667 680.423 551.833 677.855C551.833 677.855 546.7 672.72 549.267 682.99Z" fill="white"/>
</svg>
