<svg width="230" height="72" viewBox="0 0 230 72" fill="none" xmlns="http://www.w3.org/2000/svg">
<path d="M48.132 0.849818C45.4281 3.60166 42.4843 5.07358 37.0926 6.35351C33.2048 7.28146 30.469 8.03341 29.2691 8.51339C28.6931 8.73737 28.1811 8.91336 28.1331 8.91336C28.0691 8.91336 27.9731 8.06541 27.9251 7.02547C27.8131 4.97759 27.6691 3.95364 27.4932 3.95364C27.1732 3.95364 16.2778 12.6252 16.4218 12.7691C16.4858 12.8171 16.8538 12.9451 17.2537 13.0571C17.6537 13.1691 18.2297 13.4091 18.5337 13.5691L19.0936 13.8571L17.3977 13.8731C14.5659 13.8731 12.262 14.657 10.2621 16.273C9.22218 17.1049 7.99025 18.6408 7.44628 19.7448L7.1103 20.4327L8.18224 21.4727C9.14219 22.4166 10.2141 24.1445 10.2141 24.7205C10.2141 24.8165 9.73415 24.6405 9.15819 24.3365C8.26224 23.8725 7.95825 23.7925 7.01431 23.7925C6.40634 23.7925 5.86237 23.8565 5.81438 23.9525C5.76638 24.0325 5.84637 24.9285 5.99037 25.9364L6.27835 27.7763L5.46239 28.9922C4.90243 29.8562 4.32646 30.4802 3.5745 31.0561C1.70261 32.48 0.774658 34.5279 0.774658 37.2638C0.774658 40.1276 1.91059 42.7195 3.6225 43.8074C4.00648 44.0474 4.53445 44.5914 4.80643 45.0233C5.3664 45.9193 6.27835 47.0072 7.99025 48.8631C8.66222 49.5991 9.52617 50.655 9.91014 51.231C10.5821 52.2229 10.6301 52.2549 11.3021 52.2709C11.734 52.2709 11.974 52.2069 11.974 52.0629C11.958 51.391 11.2861 48.7831 10.8701 47.8392C10.3581 46.6712 9.89415 44.5274 10.1181 44.3194C10.1821 44.2554 11.2541 44.1594 12.502 44.1114L14.7739 44.0314L17.2857 46.4153C20.4536 49.4231 23.4294 52.5589 24.1813 53.7108C25.4133 55.5827 26.1172 58.4306 25.9412 60.8624C25.8932 61.5024 25.8293 62.0304 25.7973 62.0304C25.7813 62.0304 25.1573 61.8864 24.4213 61.7104C23.5574 61.5024 22.5334 61.3904 21.4775 61.3904H19.8456L19.7816 61.8704C19.7176 62.3184 19.7496 62.3504 20.5175 62.5744C21.4935 62.8623 22.4854 63.4703 23.6374 64.4942C24.1013 64.9102 24.7253 65.3582 25.0133 65.5022C25.4453 65.7102 25.5573 65.8702 25.6213 66.3981C25.7333 67.2461 26.1332 67.7581 27.1892 68.398C29.653 69.8859 34.0528 70.4139 37.4126 69.598C37.9886 69.47 39.1245 69.038 39.9565 68.638C43.3963 67.0061 45.4441 63.6943 45.7801 59.2465C45.8281 58.6706 45.8761 58.5906 46.3721 58.4626C47.1561 58.2546 50.4519 58.4306 51.3958 58.7186L52.1638 58.9746L52.0518 58.2226C51.9078 57.2147 51.2518 55.1508 50.6759 53.8868C49.9079 52.2069 48.548 50.319 47.1081 48.9431L45.7481 47.6632L47.22 47.5672C49.4279 47.4232 53.1557 47.3912 53.3477 47.5192C53.6197 47.6792 54.9956 50.847 55.6676 52.8789C56.4355 55.1348 56.8995 57.5186 57.0435 59.8385L57.1395 61.6304L58.1634 62.4304C60.3553 64.1263 63.1392 67.3261 65.347 70.6379C66.611 72.5738 66.483 72.6538 67.0109 69.518C68.4989 60.4785 66.259 52.5749 60.9473 48.0952L59.9393 47.2312L62.1472 47.1352C63.3791 47.0712 65.283 47.0232 66.403 47.0072L68.4509 46.9912L69.1548 48.4631C72.6586 55.8387 73.3946 62.9263 71.2987 68.99C70.9947 69.8699 70.6907 70.7179 70.6107 70.8939C70.3387 71.5018 71.2187 70.7979 73.4106 68.606C76.4184 65.6142 78.2743 63.1983 80.2582 59.7105L81.0901 58.2546L80.6742 56.7507C78.7703 49.6151 74.2425 43.8714 68.0029 40.7036C65.971 39.6636 63.3631 38.7357 61.6672 38.4797C60.9953 38.3677 60.4513 38.2397 60.4513 38.1917C60.4673 38.1437 60.7233 37.9357 61.0593 37.7117C61.3793 37.4878 62.9952 36.3838 64.6271 35.2799L67.6029 33.248L68.7068 33.776C73.1226 35.8878 76.8344 39.3277 79.1223 43.3914C80.7862 46.3513 81.7461 49.6151 82.3381 54.2708L82.4661 55.2308L82.994 53.8708C83.602 52.2869 84.498 49.1031 84.8499 47.2792C85.7779 42.3995 85.8099 36.2558 84.9299 31.7921C84.546 29.7922 83.73 26.8004 83.57 26.7364C83.474 26.6884 80.9302 27.4883 77.9223 28.4963C74.9145 29.5042 72.4506 30.2722 72.4506 30.1762C72.4506 30.0962 72.5146 30.0322 72.5946 30.0322C72.8826 30.0322 75.5545 26.8644 76.6904 25.1525C80.6902 19.1848 81.7621 12.9611 79.8102 6.97747C79.3462 5.55355 78.2903 3.21768 78.0343 3.05769C77.9543 3.0257 76.9464 3.08969 75.7784 3.21768C73.3306 3.50567 70.1308 3.74566 66.9629 3.88965L64.7551 3.98564L66.563 5.85754C68.9788 8.3214 70.8507 10.8333 72.0347 13.2011L72.4666 14.0491L70.9787 12.5612C68.0189 9.60133 63.2511 6.4975 58.9314 4.7216L57.9714 4.32162L55.0596 4.6576C53.4597 4.84959 52.1158 5.04158 52.0678 5.08958C52.0198 5.13758 52.1958 5.69755 52.4518 6.33751C53.5877 9.12135 54.0037 12.3532 53.5077 14.641C52.9477 17.2809 51.1878 19.7288 48.628 21.4087C47.364 22.2406 47.0121 22.3046 47.684 21.5847C48.34 20.8967 49.3319 19.2488 49.7799 18.1288C50.5959 16.097 50.7399 13.6651 50.1319 11.8732C49.6679 10.5293 49.6199 10.5293 48.788 12.1612C47.796 14.1451 46.8041 15.521 44.8682 17.5209C42.9963 19.4568 41.3804 20.8007 39.0445 22.3526L37.3806 23.4565L36.4367 22.9766C33.0608 21.2807 29.1411 20.8807 25.4133 21.8566C23.2854 22.4166 20.7415 23.6005 18.9816 24.8485C18.5497 25.1525 18.2137 25.3284 18.2137 25.2484C18.2137 24.9765 21.3815 21.9206 22.3414 21.2807C24.3573 19.9367 26.4372 19.4728 29.3971 19.7288L31.1889 19.8727L31.5729 19.3128C32.1649 18.4488 32.4529 17.6329 32.4529 16.8009C32.4529 15.809 32.0369 15.121 31.061 14.5131C30.181 13.9531 29.509 13.7451 27.7331 13.4891L26.4532 13.2971L27.6531 12.9931C29.413 12.5452 31.7489 12.5772 32.9968 13.0731C34.1328 13.5051 35.3647 14.609 35.8927 15.633C36.3727 16.5609 36.7726 17.9529 36.7726 18.6248C36.7726 18.9128 36.8206 19.1528 36.8686 19.1528C37.0126 19.1528 39.6525 17.2969 41.1244 16.161C45.5081 12.8011 48.596 9.31334 49.8599 6.30551C50.2119 5.45756 50.2759 5.07358 50.2919 3.61766C50.2919 2.04975 50.2599 1.87376 49.8119 0.99381C49.5559 0.481839 49.2519 0.0338637 49.1719 0.00186547C49.0759 -0.0301327 48.612 0.353846 48.132 0.849818ZM60.3233 11.0252C66.131 16.129 69.4108 21.5047 69.7948 26.5924C69.8428 27.2963 69.8268 28.1283 69.7628 28.4323L69.6348 28.9922L68.8988 27.5843C66.083 22.3206 62.3072 18.4488 58.1154 16.5609C57.4755 16.273 56.9315 15.953 56.9315 15.873C56.9315 15.777 57.2995 14.561 57.7475 13.1531C58.1954 11.7452 58.6114 10.4333 58.6434 10.2253C58.6914 10.0333 58.7874 9.87331 58.8674 9.87331C58.9474 9.87331 59.6034 10.4013 60.3233 11.0252ZM27.4932 16.3689C28.3891 16.6409 29.2531 17.3449 29.2531 17.7929C29.2531 18.0009 29.1731 18.0489 28.9011 17.9529C28.0211 17.6809 25.9572 17.6809 24.9333 17.9529C23.7174 18.2728 21.9895 19.1048 20.8535 19.9207C19.7656 20.7047 17.4137 22.9926 16.2778 24.3845C14.4059 26.6404 13.19 29.9682 13.286 32.512L13.334 33.792L12.39 34.1599C10.7421 34.8159 9.36618 35.0239 7.25429 34.9439C5.09442 34.8639 4.13447 34.5919 4.13447 34.048C4.13447 33.568 4.59844 32.464 5.19041 31.5201C5.92637 30.3682 7.60627 28.6243 9.35018 27.2323C10.9021 25.9844 11.0941 25.7284 12.054 23.8245C14.0539 19.8408 13.7659 17.6809 11.2701 17.9209C10.8221 17.9529 10.3101 18.0489 10.1341 18.1128C9.38217 18.3688 10.6461 17.5369 11.4941 17.2009C13.8939 16.257 16.0538 17.2009 16.0538 19.1848C16.0538 19.6168 16.0698 19.9527 16.0858 19.9527C16.1018 19.9527 16.6138 19.6328 17.2057 19.2488C21.1415 16.7209 25.0133 15.633 27.4932 16.3689ZM55.3156 23.9845C54.5636 25.2004 54.0357 26.0484 53.9557 26.1604C53.8117 26.4164 49.4919 27.2643 46.0521 27.6963C41.3004 28.3203 32.5329 28.8482 29.973 28.6883C28.6131 28.6083 28.3091 28.6243 27.9731 28.8642C27.3492 29.2962 27.1892 29.5842 27.1732 30.2402C27.1732 31.0881 27.6371 31.2801 28.9651 31.0081C29.509 30.8961 30.997 30.7681 32.2609 30.7201L34.5968 30.6241L33.9088 31.2321C33.2208 31.8561 32.8369 32.448 32.6129 33.248C32.4849 33.664 32.5009 33.68 33.3008 33.776C33.7648 33.824 35.8447 33.904 37.9406 33.968C42.2123 34.08 42.0683 34.1279 41.2844 32.896C40.7244 32.0321 39.6365 31.0561 38.9005 30.8001C38.6125 30.6881 38.3725 30.5601 38.3725 30.5122C38.3725 30.4482 38.7565 30.4002 39.2205 30.3682C39.6685 30.3522 40.8044 30.2722 41.7324 30.1922C42.6443 30.0962 43.4443 30.0802 43.5083 30.1602C43.7642 30.4162 44.7562 32.544 44.9162 33.184C45.0602 33.728 45.1722 33.872 45.4601 33.872C45.9401 33.872 50.4359 33.168 53.0597 32.704C54.2117 32.48 55.1716 32.352 55.1716 32.384C55.1716 32.48 54.5476 33.216 53.5237 34.3199L52.8997 35.0239L50.8678 35.2319C47.572 35.5839 42.3083 35.6799 38.2926 35.4879C32.1009 35.1679 25.4133 34.4799 24.8693 34.0959C24.3093 33.712 23.6694 33.824 23.0774 34.4159C22.4694 35.0239 22.3574 35.7439 22.8054 36.2078C23.0294 36.4158 23.2694 36.4478 24.0853 36.3838C24.6453 36.3198 25.0933 36.3198 25.0933 36.3678C25.0933 36.4158 24.9013 36.7038 24.6773 36.9918L24.2773 37.5358L24.9653 37.7117C25.3493 37.8077 26.0052 37.9997 26.4372 38.1277C26.8692 38.2557 27.3172 38.3517 27.4292 38.3517C27.5412 38.3517 27.7491 37.9837 27.8931 37.5518C28.0371 37.1038 28.2451 36.7518 28.3411 36.7518C28.4531 36.7518 29.621 36.8638 30.933 36.9918C33.6368 37.2638 33.3488 37.1038 34.4528 39.0077L35.1567 40.2236L37.1246 40.5596C39.7805 41.0236 42.5643 41.4075 42.6443 41.3275C42.6923 41.2955 42.7243 40.4476 42.7403 39.4396L42.7723 37.6318L44.0202 37.5838L45.2522 37.5358V37.9997C45.2522 38.4957 44.7242 40.2396 44.3562 40.9436C44.2282 41.1836 44.1322 41.4235 44.1322 41.4875C44.1322 41.5515 45.5721 41.5675 47.332 41.5195C49.0919 41.4875 50.5319 41.4555 50.5319 41.4715C50.5319 41.4875 50.3239 41.9995 50.0839 42.6075L49.6199 43.7114L48.116 43.6634C44.6282 43.5514 39.0765 42.6555 33.9728 41.3755C28.7571 40.0636 20.9495 37.6158 20.2456 37.0718C20.0216 36.8958 19.6696 36.7518 19.4616 36.7518C18.3737 36.7518 17.4297 38.1117 17.9577 38.9117C18.1017 39.1357 18.2777 39.3117 18.3417 39.3117C19.9256 39.4077 22.0535 39.8716 22.0535 40.1116C22.0535 40.3836 20.6775 41.0716 19.6376 41.3115C18.7576 41.5195 10.7581 42.3515 9.65416 42.3515C9.28618 42.3515 9.35018 42.2235 10.6461 40.2236C15.6538 32.56 16.5018 31.4241 18.2617 30.0962C19.8616 28.8802 20.7895 28.5283 22.2934 28.5283C23.6054 28.5283 24.1333 28.6883 25.1893 29.3922L25.7013 29.7282L26.1492 28.9602C26.7252 27.9683 28.1331 26.4804 29.0931 25.8724C31.8609 24.0965 35.4287 24.2405 39.5565 26.3044L40.6604 26.8644L42.6923 26.4484C44.8682 26.0164 47.828 25.1845 52.6917 23.6485C54.3716 23.1206 55.8276 22.6886 55.9396 22.6886C56.0356 22.6726 55.7636 23.2646 55.3156 23.9845ZM23.4614 24.8645C23.8294 25.3604 23.6854 25.9844 23.0454 26.6564C22.0055 27.7443 20.4376 27.7123 20.3256 26.5924C20.1976 25.1685 22.6614 23.8085 23.4614 24.8645ZM4.08647 38.9917C4.50245 39.8556 4.99842 40.5116 5.84637 41.3435C7.1103 42.5915 7.0783 42.7035 5.63838 42.2715C4.63044 41.9675 3.68649 41.1676 3.11053 40.1116C2.56656 39.1037 2.37457 37.2638 2.69455 35.9358L2.90254 35.0719L3.20652 36.4318C3.36651 37.1838 3.75049 38.3357 4.08647 38.9917ZM24.5813 42.2235C24.6613 42.3355 24.7733 43.0394 24.8213 43.7914C24.8693 44.8633 25.0613 45.6633 25.7013 47.5512C26.1332 48.8631 26.5492 50.287 26.5972 50.703L26.7092 51.471H26.1652C25.7013 51.471 25.5253 51.343 24.9013 50.543C24.5173 50.0471 23.3974 48.7351 22.4374 47.6312C21.4775 46.5273 20.4856 45.3753 20.2456 45.0553C19.7176 44.3674 19.3976 43.5034 19.5896 43.3114C19.7976 43.1034 23.4774 42.0475 23.9894 42.0315C24.2293 42.0315 24.4853 42.1275 24.5813 42.2235ZM37.7806 44.2874C38.3085 44.4314 38.4365 44.5594 38.7885 45.3593C39.4445 46.8312 40.5804 50.319 40.9964 52.2069C42.7723 60.0305 41.0604 65.2942 36.2127 67.0061L35.2847 67.3261L34.5968 66.9581C34.2128 66.7501 33.8928 66.5581 33.8928 66.5101C33.9088 66.4621 34.2768 66.2541 34.7088 66.0462C35.9887 65.4542 37.4766 63.9503 38.1646 62.5744L38.7405 61.3904L38.6445 58.8786C38.4365 53.5029 37.1406 49.1511 34.5008 45.0393C34.0688 44.3674 33.6208 43.7274 33.4928 43.6314C33.3648 43.5194 33.2528 43.3754 33.2528 43.3114C33.2528 43.2314 35.0607 43.6154 37.7806 44.2874ZM31.7329 61.6944C33.1888 61.9984 35.7327 62.8943 35.8927 63.1503C36.0527 63.4223 35.5087 64.2543 34.9007 64.6702C33.8448 65.3742 32.9329 65.1342 31.2689 63.7263C30.773 63.2943 30.005 62.7983 29.541 62.6063C28.6611 62.2544 28.5491 62.1424 28.6771 61.6624C28.7731 61.2944 29.845 61.2944 31.7329 61.6944Z" fill="white"/>
<path d="M22.7735 30.2562C21.8135 30.6721 21.4295 31.8081 22.0535 32.4321C22.4375 32.816 22.6775 32.832 23.4134 32.528C23.9574 32.2881 24.4534 31.5841 24.4534 31.0241C24.4534 30.2882 23.5894 29.8882 22.7735 30.2562Z" fill="white"/>
<path d="M17.6057 33.0238C16.5498 33.5358 16.3098 34.9757 17.2058 35.3277C17.7817 35.5517 18.3257 35.3917 18.8697 34.8317C19.4616 34.2558 19.5096 33.3758 18.9817 33.0078C18.5337 32.6878 18.2777 32.6878 17.6057 33.0238Z" fill="white"/>
<path d="M13.382 38.6077C12.9021 38.8637 12.4541 39.5836 12.4541 40.0796C12.4541 40.4156 12.8861 40.8636 13.2541 40.9116C13.862 41.0076 14.23 40.8796 14.678 40.4156C15.8619 39.2477 14.822 37.8077 13.382 38.6077Z" fill="white"/>
<path d="M106.701 26.5988V19.1145H113.745V26.5988H119.028V6.93408H113.745V14.4184H106.701V6.93408H101.418V26.5988H106.701Z" fill="white"/>
<path d="M132.077 26.5988V20.3178L139.737 6.93408H133.222L131.285 11.2779L129.553 15.7979L127.821 11.2779L125.913 6.93408H119.222L126.794 20.2591V26.5988H132.077Z" fill="white"/>
<path d="M145.223 26.5988V21.5799H148.246C153.294 21.5799 156.963 19.5254 156.963 14.2423C156.963 8.9886 153.236 6.93408 148.246 6.93408H139.94V26.5988H145.223ZM148.305 11.6301C150.359 11.6301 151.387 12.5106 151.387 14.2423C151.387 15.9446 150.359 16.8838 148.305 16.8838H145.223V11.6301H148.305Z" fill="white"/>
<path d="M173.713 26.5988V21.9027H163.94V19.1145H172.246V14.4184H163.94V11.6301H173.713V6.93408H158.656V26.5988H173.713Z" fill="white"/>
<path d="M106.026 62.8281L107.229 59.1593H114.684L115.887 62.8281H121.669L114.713 43.1634H107.346L100.39 62.8281H106.026ZM109.636 51.8804L110.956 46.9496L112.277 51.8804L113.216 54.7567H108.697L109.636 51.8804Z" fill="white"/>
<path d="M127.452 62.8281V57.8092H130.475C135.524 57.8092 139.192 55.7547 139.192 50.4716C139.192 45.2179 135.465 43.1634 130.475 43.1634H122.169V62.8281H127.452ZM130.534 47.8594C132.589 47.8594 133.616 48.7399 133.616 50.4716C133.616 52.1739 132.589 53.1131 130.534 53.1131H127.452V47.8594H130.534Z" fill="white"/>
<path d="M146.169 62.8281V57.8092H149.192C154.24 57.8092 157.909 55.7547 157.909 50.4716C157.909 45.2179 154.181 43.1634 149.192 43.1634H140.886V62.8281H146.169ZM149.251 47.8594C151.305 47.8594 152.332 48.7399 152.332 50.4716C152.332 52.1739 151.305 53.1131 149.251 53.1131H146.169V47.8594H149.251Z" fill="white"/>
<path d="M162.204 62.8281L163.407 59.1593H170.862L172.066 62.8281H177.848L170.892 43.1634H163.525L156.569 62.8281H162.204ZM165.814 51.8804L167.135 46.9496L168.456 51.8804L169.395 54.7567H164.875L165.814 51.8804Z" fill="white"/>
<path d="M183.631 62.8281V55.784H184.042C185.656 55.784 186.39 56.283 187.182 57.5744L190.44 62.8281H196.457L193.639 58.3962C192.641 56.8406 191.761 55.5786 189.735 55.0796C193.081 54.7861 195.635 53.1131 195.635 49.3269C195.635 44.9831 192.348 43.1634 187.769 43.1634H178.348V62.8281H183.631ZM187.828 47.8594C189.325 47.8594 190.058 48.4758 190.058 49.7085C190.058 50.9119 189.325 51.5576 187.828 51.5576H183.631V47.8594H187.828Z" fill="white"/>
<path d="M212.637 62.8281V58.132H202.863V55.3438H211.169V50.6477H202.863V47.8594H212.637V43.1634H197.58V62.8281H212.637Z" fill="white"/>
<path d="M229.225 62.8281V58.132H219.745V43.1634H214.462V62.8281H229.225Z" fill="white"/>
</svg>
