<svg width="286" height="286" viewBox="0 0 286 286" fill="none" xmlns="http://www.w3.org/2000/svg">
<rect width="286" height="286" fill="#171717"/>
<path d="M152.311 73.676C146.978 79.1033 141.172 82.0062 130.538 84.5305C122.871 86.3607 117.475 87.8437 115.109 88.7903C113.973 89.232 112.963 89.5791 112.868 89.5791C112.742 89.5791 112.553 87.9068 112.458 85.8558C112.237 81.8169 111.953 79.7975 111.606 79.7975C110.975 79.7975 89.487 96.8996 89.771 97.1836C89.8972 97.2783 90.6229 97.5307 91.4118 97.7516C92.2006 97.9724 93.3366 98.4457 93.9361 98.7613L95.0405 99.3293L91.6958 99.3608C86.1107 99.3608 81.567 100.907 77.6228 104.094C75.5718 105.735 73.1421 108.764 72.0693 110.941L71.4067 112.298L73.5208 114.349C75.414 116.211 77.5281 119.618 77.5281 120.754C77.5281 120.944 76.5815 120.597 75.4456 119.997C73.6785 119.082 73.079 118.924 71.2174 118.924C70.0183 118.924 68.9455 119.05 68.8508 119.24C68.7562 119.397 68.9139 121.164 69.1979 123.152L69.7659 126.781L68.1566 129.179C67.0523 130.883 65.9163 132.114 64.4333 133.25C60.7415 136.058 58.9114 140.097 58.9114 145.492C58.9114 151.141 61.1517 156.252 64.528 158.398C65.2852 158.871 66.3265 159.944 66.8629 160.796C67.9673 162.563 69.7659 164.709 73.1421 168.369C74.4674 169.82 76.1713 171.903 76.9286 173.039C78.2538 174.995 78.3485 175.058 79.6738 175.09C80.5257 175.09 80.999 174.964 80.999 174.68C80.9675 173.354 79.6422 168.211 78.8218 166.349C77.8121 164.046 76.897 159.818 77.3388 159.408C77.465 159.281 79.5791 159.092 82.0403 158.997L86.5209 158.84L91.4749 163.541C97.7225 169.473 103.592 175.658 105.075 177.93C107.504 181.622 108.893 187.238 108.545 192.034C108.451 193.296 108.325 194.338 108.261 194.338C108.23 194.338 106.999 194.054 105.548 193.707C103.844 193.296 101.825 193.076 99.742 193.076H96.5235L96.3973 194.022C96.2711 194.906 96.3342 194.969 97.8487 195.411C99.7735 195.978 101.73 197.178 104.002 199.197C104.917 200.017 106.147 200.901 106.715 201.185C107.567 201.595 107.788 201.911 107.914 202.952C108.135 204.624 108.924 205.634 111.007 206.896C115.866 209.831 124.543 210.872 131.17 209.263C132.305 209.01 134.546 208.158 136.187 207.369C142.971 204.151 147.01 197.619 147.672 188.847C147.767 187.711 147.861 187.554 148.84 187.301C150.386 186.891 156.886 187.238 158.748 187.806L160.262 188.311L160.041 186.828C159.757 184.84 158.464 180.77 157.328 178.277C155.813 174.964 153.131 171.24 150.291 168.527L147.609 166.002L150.512 165.813C154.866 165.529 162.218 165.466 162.597 165.718C163.134 166.034 165.847 172.282 167.172 176.289C168.687 180.738 169.602 185.44 169.886 190.015L170.075 193.549L172.095 195.127C176.418 198.471 181.908 204.782 186.262 211.314C188.755 215.132 188.503 215.289 189.544 209.105C192.479 191.277 188.061 175.689 177.585 166.854L175.597 165.15L179.952 164.961C182.381 164.835 186.136 164.74 188.345 164.709L192.384 164.677L193.772 167.58C200.683 182.126 202.134 196.105 198 208.064C197.401 209.799 196.801 211.471 196.644 211.818C196.107 213.018 197.843 211.629 202.166 207.306C208.098 201.406 211.758 196.641 215.671 189.762L217.311 186.891L216.491 183.925C212.736 169.852 203.806 158.524 191.5 152.277C187.493 150.226 182.35 148.395 179.005 147.891C177.68 147.67 176.607 147.417 176.607 147.323C176.639 147.228 177.143 146.818 177.806 146.376C178.437 145.934 181.624 143.757 184.843 141.58L190.712 137.572L192.889 138.614C201.598 142.779 208.918 149.563 213.43 157.578C216.712 163.415 218.605 169.852 219.773 179.034L220.025 180.927L221.066 178.245C222.265 175.121 224.032 168.842 224.727 165.245C226.557 155.621 226.62 143.505 224.884 134.701C224.127 130.757 222.518 124.856 222.202 124.73C222.013 124.635 216.996 126.213 211.064 128.201C205.132 130.189 200.272 131.703 200.272 131.514C200.272 131.356 200.399 131.23 200.556 131.23C201.124 131.23 206.394 124.982 208.634 121.606C216.523 109.837 218.637 97.5622 214.787 85.7611C213.872 82.9528 211.789 78.346 211.285 78.0305C211.127 77.9673 209.139 78.0936 206.836 78.346C202.008 78.914 195.697 79.3873 189.449 79.6712L185.095 79.8606L188.661 83.5524C193.425 88.4116 197.117 93.3656 199.452 98.0356L200.304 99.7079L197.369 96.7734C191.532 90.9359 182.129 84.8145 173.609 81.312L171.716 80.5232L165.973 81.1858C162.818 81.5645 160.167 81.9431 160.073 82.0378C159.978 82.1324 160.325 83.2368 160.83 84.499C163.07 89.9893 163.891 96.3632 162.913 100.875C161.808 106.082 158.337 110.909 153.289 114.223C150.796 115.863 150.102 115.99 151.427 114.57C152.721 113.213 154.677 109.963 155.561 107.754C157.17 103.747 157.454 98.9506 156.255 95.4166C155.34 92.7661 155.245 92.7661 153.604 95.9846C151.648 99.8972 149.692 102.611 145.874 106.555C142.182 110.373 138.995 113.024 134.388 116.084L131.106 118.262L129.245 117.315C122.587 113.97 114.856 113.181 107.504 115.106C103.308 116.211 98.2905 118.546 94.8196 121.007C93.9676 121.606 93.305 121.953 93.305 121.796C93.305 121.259 99.5526 115.232 101.446 113.97C105.422 111.32 109.524 110.405 115.361 110.909L118.895 111.193L119.652 110.089C120.82 108.385 121.388 106.776 121.388 105.135C121.388 103.179 120.567 101.822 118.643 100.623C116.907 99.5186 115.582 99.1084 112.08 98.6035L109.555 98.2249L111.922 97.6254C115.393 96.7418 119.999 96.805 122.461 97.7831C124.701 98.6351 127.131 100.812 128.172 102.832C129.119 104.662 129.907 107.407 129.907 108.732C129.907 109.3 130.002 109.774 130.097 109.774C130.381 109.774 135.587 106.113 138.49 103.873C147.136 97.2467 153.226 90.368 155.718 84.4359C156.413 82.7635 156.539 82.0062 156.57 79.1348C156.57 76.0426 156.507 75.6955 155.624 73.96C155.119 72.9503 154.519 72.0668 154.362 72.0037C154.172 71.9406 153.257 72.6979 152.311 73.676ZM176.355 93.7442C187.809 103.81 194.277 114.412 195.034 124.446C195.129 125.834 195.098 127.475 194.971 128.075L194.719 129.179L193.267 126.402C187.714 116.021 180.267 108.385 172 104.662C170.738 104.094 169.665 103.463 169.665 103.305C169.665 103.116 170.391 100.718 171.274 97.9409C172.158 95.1642 172.978 92.5767 173.041 92.1665C173.136 91.7879 173.325 91.4724 173.483 91.4724C173.641 91.4724 174.935 92.5136 176.355 93.7442ZM111.606 104.283C113.373 104.82 115.077 106.208 115.077 107.091C115.077 107.502 114.919 107.596 114.383 107.407C112.647 106.871 108.577 106.871 106.558 107.407C104.16 108.038 100.752 109.679 98.5114 111.288C96.3657 112.834 91.7273 117.346 89.487 120.092C85.7952 124.541 83.3971 131.104 83.5864 136.121L83.6811 138.645L81.8194 139.371C78.5694 140.665 75.8558 141.075 71.6907 140.917C67.4309 140.759 65.5377 140.223 65.5377 139.15C65.5377 138.204 66.4527 136.026 67.6202 134.165C69.0717 131.893 72.3848 128.453 75.8242 125.708C78.8849 123.247 79.2636 122.742 81.1568 118.987C85.101 111.13 84.533 106.871 79.6107 107.344C78.7272 107.407 77.7174 107.596 77.3703 107.723C75.8873 108.227 78.3801 106.587 80.0524 105.924C84.7855 104.062 89.0452 105.924 89.0452 109.837C89.0452 110.689 89.0768 111.351 89.1083 111.351C89.1399 111.351 90.1496 110.72 91.3171 109.963C99.0793 104.977 106.715 102.832 111.606 104.283ZM166.478 119.303C164.995 121.701 163.954 123.373 163.796 123.594C163.512 124.099 154.993 125.771 148.209 126.623C138.837 127.854 121.546 128.895 116.497 128.58C113.815 128.422 113.215 128.453 112.553 128.927C111.322 129.779 111.007 130.347 110.975 131.64C110.975 133.313 111.89 133.691 114.509 133.155C115.582 132.934 118.516 132.682 121.009 132.587L125.616 132.398L124.259 133.597C122.902 134.827 122.145 135.995 121.703 137.572C121.451 138.393 121.483 138.424 123.06 138.614C123.975 138.708 128.077 138.866 132.211 138.992C140.636 139.213 140.352 139.308 138.806 136.878C137.701 135.174 135.556 133.25 134.104 132.745C133.536 132.524 133.063 132.271 133.063 132.177C133.063 132.051 133.82 131.956 134.735 131.893C135.619 131.861 137.859 131.703 139.689 131.546C141.488 131.356 143.065 131.325 143.192 131.483C143.696 131.987 145.653 136.184 145.968 137.446C146.252 138.519 146.473 138.803 147.041 138.803C147.988 138.803 156.854 137.415 162.029 136.5C164.301 136.058 166.194 135.805 166.194 135.869C166.194 136.058 164.964 137.509 162.944 139.687L161.714 141.075L157.706 141.485C151.206 142.179 140.825 142.369 132.905 141.99C120.694 141.359 107.504 140.002 106.431 139.245C105.327 138.487 104.065 138.708 102.897 139.876C101.698 141.075 101.477 142.495 102.361 143.41C102.803 143.82 103.276 143.883 104.885 143.757C105.99 143.631 106.873 143.631 106.873 143.725C106.873 143.82 106.494 144.388 106.053 144.956L105.264 146.029L106.621 146.376C107.378 146.565 108.672 146.944 109.524 147.196C110.376 147.449 111.259 147.638 111.48 147.638C111.701 147.638 112.111 146.912 112.395 146.06C112.679 145.177 113.089 144.483 113.279 144.483C113.499 144.483 115.803 144.704 118.39 144.956C123.723 145.492 123.155 145.177 125.332 148.932L126.72 151.33L130.602 151.993C135.839 152.908 141.33 153.665 141.488 153.507C141.582 153.444 141.645 151.772 141.677 149.784L141.74 146.218L144.201 146.124L146.631 146.029V146.944C146.631 147.922 145.59 151.361 144.864 152.75C144.611 153.223 144.422 153.696 144.422 153.823C144.422 153.949 147.262 153.98 150.733 153.886C154.204 153.823 157.044 153.76 157.044 153.791C157.044 153.823 156.633 154.832 156.16 156.031L155.245 158.209L152.279 158.114C145.4 157.893 134.451 156.126 124.385 153.602C114.099 151.014 98.7007 146.187 97.3123 145.114C96.8706 144.767 96.1764 144.483 95.7662 144.483C93.6205 144.483 91.7589 147.165 92.8001 148.742C93.0841 149.184 93.4312 149.531 93.5574 149.531C96.6813 149.721 100.878 150.636 100.878 151.109C100.878 151.645 98.1643 153.002 96.1133 153.476C94.3778 153.886 78.6009 155.527 76.4237 155.527C75.698 155.527 75.8242 155.274 78.3801 151.33C88.2564 136.216 89.9287 133.975 93.3997 131.356C96.555 128.958 98.3852 128.264 101.351 128.264C103.939 128.264 104.98 128.58 107.062 129.968L108.072 130.631L108.956 129.116C110.092 127.16 112.868 124.225 114.762 123.026C120.22 119.524 127.257 119.808 135.398 123.878L137.575 124.982L141.582 124.162C145.874 123.31 151.711 121.669 161.303 118.64C164.617 117.599 167.488 116.747 167.709 116.747C167.898 116.715 167.362 117.883 166.478 119.303ZM103.655 121.038C104.38 122.016 104.096 123.247 102.834 124.572C100.783 126.718 97.691 126.655 97.4701 124.446C97.2177 121.638 102.077 118.956 103.655 121.038ZM65.443 148.9C66.2634 150.604 67.2416 151.898 68.9139 153.539C71.4067 156 71.3436 156.221 68.5037 155.369C66.5158 154.769 64.6542 153.192 63.5182 151.109C62.4454 149.121 62.0668 145.492 62.6978 142.873L63.108 141.17L63.7076 143.852C64.0231 145.335 64.7804 147.607 65.443 148.9ZM105.863 155.274C106.021 155.495 106.242 156.883 106.337 158.366C106.431 160.48 106.81 162.058 108.072 165.782C108.924 168.369 109.745 171.177 109.839 171.998L110.06 173.512H108.987C108.072 173.512 107.725 173.26 106.494 171.682C105.737 170.704 103.528 168.117 101.635 165.939C99.742 163.762 97.7856 161.49 97.3123 160.859C96.2711 159.502 95.64 157.798 96.0186 157.42C96.4288 157.01 103.686 154.927 104.696 154.895C105.169 154.895 105.674 155.085 105.863 155.274ZM131.895 159.345C132.937 159.629 133.189 159.881 133.883 161.459C135.177 164.362 137.417 171.24 138.238 174.964C141.74 190.393 138.364 200.775 128.803 204.151L126.973 204.782L125.616 204.056C124.859 203.646 124.228 203.267 124.228 203.173C124.259 203.078 124.985 202.668 125.837 202.258C128.361 201.09 131.296 198.124 132.653 195.411L133.789 193.076L133.599 188.122C133.189 177.52 130.633 168.937 125.427 160.828C124.575 159.502 123.691 158.24 123.439 158.051C123.186 157.83 122.966 157.546 122.966 157.42C122.966 157.262 126.531 158.019 131.895 159.345ZM119.968 193.675C122.839 194.275 127.856 196.042 128.172 196.546C128.487 197.083 127.415 198.724 126.216 199.544C124.133 200.932 122.334 200.459 119.053 197.682C118.075 196.83 116.56 195.852 115.645 195.474C113.91 194.779 113.689 194.559 113.941 193.612C114.13 192.886 116.245 192.886 119.968 193.675Z" fill="white"/>
<path d="M102.298 131.672C100.405 132.492 99.6472 134.733 100.878 135.963C101.635 136.721 102.108 136.752 103.56 136.153C104.633 135.679 105.611 134.291 105.611 133.186C105.611 131.735 103.907 130.946 102.298 131.672Z" fill="white"/>
<path d="M92.106 137.131C90.0234 138.141 89.5501 140.98 91.3171 141.675C92.453 142.116 93.5259 141.801 94.5987 140.696C95.7662 139.56 95.8609 137.825 94.8196 137.099C93.9361 136.468 93.4312 136.468 92.106 137.131Z" fill="white"/>
<path d="M83.7759 148.143C82.8293 148.648 81.9458 150.068 81.9458 151.046C81.9458 151.709 82.7978 152.592 83.5235 152.687C84.7225 152.876 85.4483 152.624 86.3318 151.709C88.6668 149.405 86.6158 146.565 83.7759 148.143Z" fill="white"/>
</svg>
