<svg width="192" height="162" viewBox="0 0 192 162" fill="none" xmlns="http://www.w3.org/2000/svg">
<path d="M106.772 1.9121C100.689 8.10375 94.065 11.4156 81.9337 14.2954C73.1862 16.3833 67.0305 18.0752 64.3307 19.1551C63.0347 19.6591 61.8828 20.0551 61.7748 20.0551C61.6308 20.0551 61.4148 18.1472 61.3068 15.8073C61.0548 11.1996 60.7309 8.89571 60.3349 8.89571C59.6149 8.89571 35.1003 28.4066 35.4243 28.7306C35.5683 28.8386 36.3962 29.1266 37.2962 29.3786C38.1961 29.6305 39.4921 30.1705 40.176 30.5305L41.4359 31.1785L37.6202 31.2145C31.2485 31.2145 26.0648 32.9784 21.5651 36.6141C19.2252 38.486 16.4533 41.9418 15.2294 44.4257L14.4735 45.9736L16.8853 48.3135C19.0452 50.4374 21.4571 54.3252 21.4571 55.6211C21.4571 55.8371 20.3771 55.4411 19.0812 54.7571C17.0653 53.7132 16.3814 53.5332 14.2575 53.5332C12.8895 53.5332 11.6656 53.6772 11.5576 53.8932C11.4496 54.0732 11.6296 56.0891 11.9536 58.3569L12.6016 62.4967L10.7657 65.2325C9.50574 67.1764 8.20981 68.5803 6.51791 69.8763C2.30614 73.0801 0.218262 77.6878 0.218262 83.8435C0.218262 90.2871 2.77412 96.1188 6.6259 98.5667C7.48985 99.1066 8.67779 100.331 9.28975 101.303C10.5497 103.318 12.6016 105.766 16.4533 109.942C17.9653 111.598 19.9092 113.974 20.7731 115.27C22.285 117.502 22.393 117.574 23.9049 117.61C24.8769 117.61 25.4168 117.466 25.4168 117.142C25.3808 115.63 23.8689 109.762 22.933 107.638C21.781 105.01 20.7371 100.187 21.2411 99.7186C21.3851 99.5746 23.7969 99.3586 26.6048 99.2506L31.7165 99.0706L37.3682 104.434C44.4958 111.202 51.1914 118.258 52.8833 120.849C55.6551 125.061 57.2391 131.469 56.8431 136.941C56.7351 138.38 56.5911 139.568 56.5191 139.568C56.4831 139.568 55.0792 139.244 53.4233 138.848C51.4794 138.38 49.1755 138.128 46.7996 138.128H43.1278L42.9839 139.208C42.8399 140.216 42.9119 140.288 44.6398 140.792C46.8356 141.44 49.0675 142.808 51.6594 145.112C52.7033 146.048 54.1072 147.056 54.7552 147.38C55.7271 147.848 55.9791 148.208 56.1231 149.396C56.3751 151.304 57.2751 152.456 59.6509 153.896C65.1946 157.243 75.0941 158.431 82.6536 156.595C83.9496 156.307 86.5054 155.335 88.3773 154.436C96.1169 150.764 100.725 143.312 101.481 133.305C101.589 132.009 101.697 131.829 102.812 131.541C104.576 131.073 111.992 131.469 114.116 132.117L115.844 132.693L115.592 131.001C115.268 128.733 113.792 124.089 112.496 121.245C110.768 117.466 107.708 113.218 104.468 110.122L101.409 107.242L104.72 107.026C109.688 106.702 118.076 106.63 118.508 106.918C119.12 107.278 122.215 114.406 123.727 118.978C125.455 124.053 126.499 129.417 126.823 134.637L127.039 138.668L129.343 140.468C134.275 144.284 140.538 151.484 145.506 158.935C148.35 163.291 148.062 163.471 149.25 156.415C152.598 136.077 147.558 118.294 135.607 108.214L133.339 106.27L138.306 106.054C141.078 105.91 145.362 105.802 147.882 105.766L152.49 105.73L154.074 109.042C161.957 125.637 163.613 141.584 158.897 155.227C158.213 157.207 157.529 159.115 157.349 159.511C156.737 160.879 158.717 159.295 163.649 154.364C170.417 147.632 174.592 142.196 179.056 134.349L180.928 131.073L179.992 127.689C175.708 111.634 165.521 98.7107 151.482 91.5831C146.91 89.2432 141.042 87.1553 137.227 86.5793C135.715 86.3274 134.491 86.0394 134.491 85.9314C134.527 85.8234 135.103 85.3554 135.859 84.8514C136.579 84.3475 140.214 81.8636 143.886 79.3797L150.582 74.808L153.066 75.9959C163.001 80.7477 171.353 88.4872 176.5 97.6307C180.244 104.29 182.404 111.634 183.736 122.109L184.024 124.269L185.212 121.209C186.58 117.646 188.596 110.482 189.388 106.378C191.476 95.3988 191.548 81.5756 189.568 71.5322C188.704 67.0324 186.868 60.3008 186.508 60.1568C186.292 60.0488 180.568 61.8487 173.801 64.1166C167.033 66.3845 161.489 68.1124 161.489 67.8964C161.489 67.7164 161.633 67.5724 161.813 67.5724C162.461 67.5724 168.473 60.4448 171.029 56.593C180.028 43.1658 182.44 29.1626 178.048 15.6993C177.004 12.4955 174.628 7.2398 174.052 6.87982C173.872 6.80782 171.605 6.95181 168.977 7.2398C163.469 7.88776 156.269 8.42773 149.142 8.75171L144.174 8.9677L148.242 13.1795C153.678 18.7232 157.889 24.3748 160.553 29.7025L161.525 31.6104L158.177 28.2626C151.518 21.603 140.79 14.6194 131.071 10.6236L128.911 9.72366L122.359 10.4796C118.76 10.9116 115.736 11.3436 115.628 11.4516C115.52 11.5596 115.916 12.8195 116.492 14.2594C119.048 20.5231 119.984 27.7946 118.868 32.9424C117.608 38.882 113.648 44.3897 107.888 48.1695C105.044 50.0414 104.252 50.1854 105.764 48.5655C107.24 47.0176 109.472 43.3098 110.48 40.7899C112.316 36.2182 112.64 30.7465 111.272 26.7147C110.228 23.6909 110.12 23.6909 108.248 27.3627C106.016 31.8264 103.784 34.9222 99.4287 39.422C95.2169 43.7777 91.5811 46.8016 86.3254 50.2934L82.5816 52.7772L80.4577 51.6973C72.8622 47.8815 64.0427 46.9816 55.6551 49.1774C50.8674 50.4374 45.1437 53.1012 41.184 55.9091C40.212 56.593 39.4561 56.989 39.4561 56.809C39.4561 56.197 46.5837 49.3214 48.7435 47.8815C53.2793 44.8577 57.959 43.8137 64.6186 44.3897L68.6504 44.7137L69.5144 43.4538C70.8463 41.5099 71.4943 39.674 71.4943 37.8021C71.4943 35.5702 70.5583 34.0223 68.3624 32.6544C66.3825 31.3944 64.8706 30.9265 60.8749 30.3505L57.995 29.9185L60.6949 29.2346C64.6546 28.2266 69.9103 28.2986 72.7182 29.4146C75.274 30.3865 78.0459 32.8704 79.2338 35.1742C80.3138 37.2621 81.2137 40.3939 81.2137 41.9058C81.2137 42.5538 81.3217 43.0938 81.4297 43.0938C81.7537 43.0938 87.6933 38.918 91.0052 36.3622C100.869 28.8026 107.816 20.955 110.66 14.1874C111.452 12.2795 111.596 11.4156 111.632 8.13975C111.632 4.61195 111.56 4.21597 110.552 2.23608C109.976 1.08414 109.292 0.0762017 109.112 0.0042057C108.896 -0.0677903 107.852 0.796161 106.772 1.9121ZM134.203 24.8068C147.27 36.2902 154.65 48.3855 155.514 59.8328C155.622 61.4168 155.586 63.2886 155.442 63.9726L155.154 65.2325L153.498 62.0647C147.162 50.2214 138.666 41.5099 129.235 37.2621C127.795 36.6141 126.571 35.8942 126.571 35.7142C126.571 35.4982 127.399 32.7624 128.407 29.5945C129.415 26.4267 130.351 23.4749 130.423 23.0069C130.531 22.5749 130.747 22.215 130.927 22.215C131.107 22.215 132.583 23.4029 134.203 24.8068ZM60.3349 36.8301C62.3508 37.4421 64.2947 39.026 64.2947 40.034C64.2947 40.5019 64.1147 40.6099 63.5027 40.3939C61.5228 39.782 56.8791 39.782 54.5752 40.3939C51.8394 41.1139 47.9516 42.9858 45.3957 44.8217C42.9479 46.5856 37.6562 51.7333 35.1003 54.8651C30.8885 59.9408 28.1527 67.4284 28.3687 73.1521L28.4767 76.0319L26.3528 76.8599C22.645 78.3358 19.5492 78.8038 14.7974 78.6238C9.93772 78.4438 7.77784 77.8318 7.77784 76.6079C7.77784 75.528 8.82178 73.0441 10.1537 70.9202C11.8096 68.3284 15.5894 64.4046 19.5132 61.2728C23.005 58.4649 23.437 57.889 25.5968 53.6052C30.0966 44.6417 29.4486 39.782 23.8329 40.3219C22.825 40.3939 21.6731 40.6099 21.2771 40.7539C19.5852 41.3299 22.429 39.458 24.3369 38.702C29.7366 36.5781 34.5963 38.702 34.5963 43.1658C34.5963 44.1377 34.6323 44.8937 34.6683 44.8937C34.7043 44.8937 35.8563 44.1737 37.1882 43.3098C46.0437 37.6221 54.7552 35.1742 60.3349 36.8301ZM122.935 53.9652C121.243 56.701 120.056 58.6089 119.876 58.8609C119.552 59.4369 109.832 61.3448 102.093 62.3167C91.4011 63.7206 71.6742 64.9086 65.9146 64.5486C62.8547 64.3686 62.1708 64.4046 61.4148 64.9446C60.0109 65.9165 59.6509 66.5645 59.6149 68.0404C59.6149 69.9483 60.6589 70.3802 63.6467 69.7683C64.8706 69.5163 68.2184 69.2283 71.0623 69.1203L76.318 68.9043L74.7701 70.2723C73.2222 71.6762 72.3582 73.0081 71.8542 74.808C71.5662 75.7439 71.6022 75.7799 73.4021 75.9959C74.4461 76.1039 79.1258 76.2839 83.8416 76.4279C93.453 76.6799 93.129 76.7879 91.3651 74.016C90.1052 72.0722 87.6573 69.8763 86.0014 69.3003C85.3535 69.0483 84.8135 68.7603 84.8135 68.6523C84.8135 68.5084 85.6775 68.4004 86.7214 68.3284C87.7293 68.2924 90.2852 68.1124 92.3731 67.9324C94.425 67.7164 96.2249 67.6804 96.3689 67.8604C96.9448 68.4364 99.1767 73.2241 99.5367 74.664C99.8607 75.8879 100.113 76.2119 100.761 76.2119C101.841 76.2119 111.956 74.628 117.86 73.5841C120.452 73.0801 122.611 72.7921 122.611 72.8641C122.611 73.0801 121.207 74.736 118.904 77.2199L117.5 78.8038L112.928 79.2717C105.512 80.0637 93.669 80.2797 84.6335 79.8477C70.7023 79.1278 55.6551 77.5798 54.4312 76.7159C53.1713 75.8519 51.7314 76.1039 50.3994 77.4359C49.0315 78.8038 48.7795 80.4237 49.7875 81.4676C50.2914 81.9356 50.8314 82.0076 52.6673 81.8636C53.9272 81.7196 54.9352 81.7196 54.9352 81.8276C54.9352 81.9356 54.5032 82.5836 53.9992 83.2315L53.0993 84.4555L54.6472 84.8514C55.5112 85.0674 56.9871 85.4994 57.959 85.7874C58.931 86.0754 59.9389 86.2914 60.1909 86.2914C60.4429 86.2914 60.9108 85.4634 61.2348 84.4915C61.5588 83.4835 62.0268 82.6916 62.2428 82.6916C62.4948 82.6916 65.1226 82.9435 68.0744 83.2315C74.1581 83.8435 73.5101 83.4835 75.994 87.7673L77.5779 90.5031L82.0057 91.2591C87.9813 92.303 94.245 93.167 94.425 92.987C94.533 92.915 94.605 91.0071 94.641 88.7392L94.7129 84.6714L97.5208 84.5635L100.293 84.4555V85.4994C100.293 86.6153 99.1047 90.5391 98.2767 92.123C97.9888 92.663 97.7728 93.203 97.7728 93.347C97.7728 93.4909 101.013 93.5269 104.972 93.419C108.932 93.347 112.172 93.275 112.172 93.311C112.172 93.347 111.704 94.4989 111.164 95.8668L110.12 98.3507L106.736 98.2427C98.8887 97.9907 86.3974 95.9748 74.9141 93.095C63.1787 90.1431 45.6117 84.6354 44.0278 83.4115C43.5238 83.0155 42.7319 82.6916 42.2639 82.6916C39.816 82.6916 37.6922 85.7514 38.8801 87.5513C39.2041 88.0553 39.6 88.4512 39.744 88.4512C43.3078 88.6672 48.0956 89.7112 48.0956 90.2511C48.0956 90.8631 44.9997 92.411 42.6599 92.951C40.68 93.419 22.681 95.2908 20.1971 95.2908C19.3692 95.2908 19.5132 95.0029 22.429 90.5031C33.6964 73.2601 35.6043 70.7042 39.564 67.7164C43.1638 64.9806 45.2517 64.1886 48.6355 64.1886C51.5874 64.1886 52.7753 64.5486 55.1512 66.1325L56.3031 66.8884L57.3111 65.1605C58.607 62.9287 61.7748 59.5809 63.9347 58.2129C70.1623 54.2172 78.1899 54.5411 87.4774 59.1849L89.9612 60.4448L94.533 59.5089C99.4287 58.5369 106.088 56.665 117.032 53.2092C120.811 52.0213 124.087 51.0493 124.339 51.0493C124.555 51.0133 123.943 52.3453 122.935 53.9652ZM51.2634 55.9451C52.0913 57.061 51.7674 58.4649 50.3274 59.9768C47.9876 62.4247 44.4598 62.3527 44.2078 59.8328C43.9198 56.629 49.4635 53.5692 51.2634 55.9451ZM7.66984 87.7313C8.60579 89.6752 9.72173 91.1511 11.6296 93.023C14.4735 95.8308 14.4015 96.0828 11.1616 95.1109C8.89377 94.4269 6.76989 92.627 5.47397 90.2511C4.25003 87.9833 3.81806 83.8435 4.53802 80.8557L5.00599 78.9118L5.68995 81.9716C6.04993 83.6635 6.91389 86.2554 7.66984 87.7313ZM53.7832 95.0029C53.9632 95.2548 54.2152 96.8388 54.3232 98.5307C54.4312 100.943 54.8632 102.742 56.3031 106.99C57.2751 109.942 58.211 113.146 58.319 114.082L58.571 115.81H57.347C56.3031 115.81 55.9071 115.522 54.5032 113.722C53.6393 112.606 51.1194 109.654 48.9595 107.17C46.7996 104.686 44.5678 102.094 44.0278 101.375C42.8399 99.8266 42.1199 97.8827 42.5519 97.4507C43.0199 96.9828 51.2994 94.6069 52.4513 94.5709C52.9913 94.5709 53.5673 94.7869 53.7832 95.0029ZM83.4816 99.6466C84.6695 99.9706 84.9575 100.259 85.7495 102.058C87.2254 105.37 89.7812 113.218 90.7172 117.466C94.7129 135.069 90.8612 146.912 79.9538 150.764L77.8659 151.484L76.318 150.656C75.454 150.188 74.7341 149.756 74.7341 149.648C74.7701 149.54 75.598 149.072 76.57 148.604C79.4498 147.272 82.7976 143.888 84.3455 140.792L85.6415 138.128L85.4255 132.477C84.9575 120.381 82.0417 110.59 76.102 101.339C75.13 99.8266 74.1221 98.3867 73.8341 98.1707C73.5461 97.9187 73.2942 97.5947 73.2942 97.4507C73.2942 97.2707 77.3619 98.1347 83.4816 99.6466ZM69.8743 138.812C73.1502 139.496 78.8738 141.512 79.2338 142.088C79.5938 142.7 78.3699 144.572 77.0019 145.508C74.6261 147.092 72.5742 146.552 68.8304 143.384C67.7145 142.412 65.9866 141.296 64.9426 140.864C62.9627 140.072 62.7107 139.82 62.9987 138.74C63.2147 137.912 65.6266 137.912 69.8743 138.812Z" fill="white"/>
<path d="M49.7155 68.0764C47.5556 69.0123 46.6917 71.5682 48.0956 72.9721C48.9595 73.8361 49.4995 73.8721 51.1554 73.1881C52.3793 72.6481 53.4953 71.0642 53.4953 69.8043C53.4953 68.1484 51.5514 67.2484 49.7155 68.0764Z" fill="white"/>
<path d="M38.0883 74.3041C35.7124 75.4561 35.1724 78.6959 37.1883 79.4879C38.4842 79.9918 39.7082 79.6318 40.9321 78.3719C42.264 77.076 42.372 75.0961 41.1841 74.2681C40.1761 73.5482 39.6002 73.5482 38.0883 74.3041Z" fill="white"/>
<path d="M28.585 86.8673C27.505 87.4433 26.4971 89.0632 26.4971 90.1791C26.4971 90.9351 27.469 91.943 28.297 92.051C29.6649 92.267 30.4928 91.979 31.5008 90.9351C34.1646 88.3072 31.8248 85.0674 28.585 86.8673Z" fill="white"/>
</svg>
