<svg width="260" height="175" viewBox="0 0 260 175" fill="none" xmlns="http://www.w3.org/2000/svg">
<g clip-path="url(#clip0_627_559)">
<path d="M170.17 114.782L116.709 22.0238L155.115 0L221.593 114.782H170.17Z" fill="#212529"/>
<path d="M27.7734 101.786L66.1797 79.613L86.5007 114.782H35.2261L27.7734 101.786Z" fill="#212529"/>
<path d="M103.146 173.958H114.076V129.812H103.146V173.958Z" fill="#212529"/>
<path d="M240.127 175C227.904 175 220.551 168.7 220.153 159.821H231.68C231.68 162.599 233.419 166.667 240.872 166.815C245.84 166.815 248.176 163.889 248.176 161.706C247.877 158.234 243.505 157.936 238.835 157.192C234.164 156.448 230.19 155.605 227.308 154.117C223.631 152.232 221.147 148.165 221.147 143.502C221.147 135.615 228.003 129.365 239.431 129.365C250.511 129.365 257.516 135.169 258.262 143.799H247.132C247.033 141.468 246.586 137.798 240.027 137.798C235.605 137.798 232.674 138.69 232.425 141.766C232.425 146.28 241.617 145.982 248.772 147.867C255.628 149.603 260 153.869 260 159.821C260 170.784 251.107 175 240.127 175Z" fill="#212529"/>
<path d="M72.7881 62.4008L111.194 40.2778L154.271 114.782H114.076V125.694H103.145V114.732L72.7881 62.4008Z" fill="#212529"/>
<path fill-rule="evenodd" clip-rule="evenodd" d="M73.7822 175C61.0629 175 50.7285 164.633 50.7285 152.083C50.7285 139.385 61.0629 129.365 73.7822 129.365C78.6016 129.365 82.9739 130.655 86.7996 133.284V114.782H97.7302V173.958H86.7996V171.032C82.9739 173.512 78.6016 175 73.7822 175ZM61.212 152.083C61.212 158.929 67.0748 164.633 74.0803 164.633C80.9368 164.633 86.7996 158.929 86.7996 152.083C86.7996 145.238 80.9368 139.385 74.0803 139.385C67.0748 139.385 61.212 145.238 61.212 152.083Z" fill="#212529"/>
<path fill-rule="evenodd" clip-rule="evenodd" d="M154.569 114.782H165.351V173.958H154.569V171.032C150.892 173.512 146.371 175 141.403 175C128.832 175 118.498 164.633 118.498 152.083C118.498 139.385 128.832 129.365 141.403 129.365C146.371 129.365 150.743 130.655 154.569 133.284V114.782ZM129.131 152.083C129.131 158.929 134.993 164.633 141.701 164.633C148.706 164.633 154.569 158.929 154.569 152.083C154.569 145.238 148.706 139.385 141.701 139.385C134.993 139.385 129.131 145.238 129.131 152.083Z" fill="#212529"/>
<path fill-rule="evenodd" clip-rule="evenodd" d="M191.932 175C179.411 175 169.027 164.633 169.027 152.083C169.027 139.385 179.411 129.365 191.932 129.365C196.751 129.365 201.273 130.655 204.949 133.284V129.762H215.88V173.958H204.949V171.032C201.273 173.512 196.9 175 191.932 175ZM179.66 152.083C179.66 158.928 185.523 164.633 192.379 164.633C199.236 164.633 204.949 158.928 204.949 152.083C204.949 145.238 199.236 139.385 192.379 139.385C185.523 139.385 179.66 145.238 179.66 152.083Z" fill="#212529"/>
<path fill-rule="evenodd" clip-rule="evenodd" d="M10.5332 152.083C10.5332 158.928 16.3959 164.633 23.2524 164.633C30.258 164.633 36.1208 158.928 36.1208 152.083C36.1208 145.238 30.258 139.385 23.2524 139.385C16.3959 139.385 10.5332 145.238 10.5332 152.083ZM22.9543 175C10.3841 175 0 164.633 0 152.083C0 139.385 10.3841 129.365 22.9543 129.365C27.7737 129.365 32.295 130.655 36.1208 133.284V129.762H46.9024V173.958H36.1208V171.032C32.4441 173.512 27.9228 175 22.9543 175Z" fill="#212529"/>
</g>
<defs>
<clipPath id="clip0_627_559">
<rect width="260" height="175" fill="white"/>
</clipPath>
</defs>
</svg>
