<svg width="140" height="192" viewBox="0 0 140 192" fill="none" xmlns="http://www.w3.org/2000/svg">
<path d="M64.7396 0.136474C63.8959 0.225186 61.5524 0.461752 59.5839 0.727888C42.5231 2.85698 30.3368 10.4271 23.2751 23.2016C21.3378 26.7501 20.6191 27.7555 20.0566 27.7555C19.6504 27.7555 19.088 26.1883 19.2442 25.449C19.2755 25.2716 19.1817 25.0942 19.0255 25.0942C18.6818 25.0942 18.3381 27.2528 18.3381 29.4411C18.3381 30.2986 18.1506 31.4519 17.9006 31.9841C17.3694 33.1965 13.5261 36.6268 10.8388 38.2531C9.71394 38.9628 8.58905 39.7612 8.33908 40.0274C8.02661 40.4118 7.99537 41.4763 8.18285 45.4388C8.52656 51.974 8.43282 53.8369 7.6829 55.7294C6.71425 58.1542 3.7458 60.2833 1.33979 60.2833C0.433635 60.2833 0.808597 60.993 2.83964 62.9447C3.96453 64.0092 4.93318 65.1921 5.05816 65.6061C5.18315 66.1383 4.80819 67.2029 3.65206 69.4207C2.77715 71.1062 1.77725 72.8805 1.43353 73.324L0.839844 74.1224L2.58967 74.98C5.27689 76.222 5.62061 77.0204 5.40188 81.2786C5.30814 83.1415 4.87068 86.3351 4.43323 88.3755C3.99577 90.4159 3.52707 92.9294 3.40208 93.994C3.12086 96.5371 3.12086 105.911 3.43333 109.045C4.12076 116.261 6.24554 128.473 8.1516 136.28C9.49521 141.751 9.49521 141.928 8.30783 143.022C7.74539 143.525 6.65175 144.175 5.87058 144.442C5.08941 144.737 4.30824 145.033 4.18325 145.151C4.05827 145.27 4.65196 145.861 5.52687 146.512C7.21419 147.724 8.43282 149.173 8.96402 150.681C9.43272 151.893 9.05776 152.603 7.02671 154.348L5.43313 155.708L6.96422 156.684C11.4013 159.552 16.807 164.55 22.5564 171.203C29.3057 178.98 32.6804 182.115 34.3364 182.115C34.6489 182.115 35.4926 181.701 36.2737 181.198C39.2422 179.217 42.8668 180.252 47.8038 184.451C51.8971 187.94 55.678 190.158 56.8654 189.714C57.0841 189.626 57.4591 189.005 57.6778 188.354C58.2402 186.491 58.8027 186.491 60.6463 188.384C63.146 190.927 65.302 191.548 72.3951 191.784C78.1445 191.962 82.9877 191.548 84.3626 190.72C84.925 190.395 86.6436 188.591 88.1747 186.669C89.8933 184.569 91.4556 182.972 92.143 182.588L93.3304 181.967L94.5803 182.647C95.7364 183.268 95.8302 183.268 95.8302 182.795C95.8614 181.937 96.6738 181.198 100.83 178.271C116.047 167.536 128.108 156.092 134.326 146.482C136.576 143.052 137.013 142.224 137.92 139.71C139.013 136.665 139.388 133.944 138.951 132.406C138.732 131.697 137.326 128.592 135.795 125.457C132.045 117.769 131.358 115.788 131.514 112.919C131.639 110.347 132.389 108.661 134.264 106.621C135.67 105.113 135.701 104.994 135.014 103.161C134.42 101.535 134.357 96.3596 134.951 93.994C135.201 92.9294 135.326 89.6766 135.326 84.7383C135.357 77.8188 135.42 77.0499 135.92 76.7247C136.576 76.2515 136.607 75.9558 136.014 75.9558C134.795 75.9558 134.045 72.91 135.076 72.0821C135.326 71.8751 136.326 71.6385 137.263 71.5794L138.982 71.4315L138.388 70.8105C137.545 69.9234 137.388 69.3911 136.888 66.0496C136.389 62.649 136.42 62.6786 135.545 59.5441C131.483 44.6404 118.453 20.629 110.36 13.1476C103.486 6.78989 92.7992 2.35428 80.2068 0.698318C76.6446 0.225186 67.7393 -0.100092 64.7396 0.136474ZM74.2699 36.1536C80.8005 37.7504 85.425 40.6484 87.3935 44.4334C89.2683 48.0115 88.9246 50.525 86.3624 52.0922C85.1125 52.8907 82.0816 53.8961 80.113 54.2509C79.5818 54.31 79.0819 54.4579 78.9569 54.517C78.332 54.8719 71.0827 55.2563 63.4272 55.2859C50.9285 55.3746 47.1789 55.6407 41.6169 56.8236C35.5863 58.1542 31.5867 58.2134 29.1182 57.0306C27.3996 56.2026 26.3372 54.9606 26.0248 53.3046C25.7436 51.9148 26.7435 49.9631 30.8368 44.0194C34.3052 38.9628 34.7426 38.401 35.1801 38.401C35.3676 38.401 36.0863 38.9333 36.7737 39.5543C38.336 40.9441 38.4923 40.7371 38.2735 37.78C38.1485 36.1536 38.211 35.6509 38.5548 35.5326C38.8047 35.4439 40.1483 35.7988 41.5544 36.331L44.1167 37.3069L48.6475 37.1295C51.1472 37.0112 53.772 36.8042 54.5219 36.6268C55.2406 36.4789 56.3342 36.2423 56.9591 36.1536C57.5841 36.0649 58.3965 35.9466 58.7402 35.8579C59.1152 35.7988 59.9588 35.6805 60.6775 35.5622C61.3649 35.4735 61.9899 35.3256 62.0836 35.2369C62.1773 35.1482 64.2084 35.1482 66.6144 35.2369C69.9266 35.3552 71.7701 35.5622 74.2699 36.1536ZM59.4276 64.5415C63.8334 66.6115 67.3331 70.0417 70.9577 75.8671C72.1138 77.7005 73.8324 79.9774 74.7698 80.9828C76.4259 82.6388 76.5196 82.8458 76.3634 83.8512C76.0822 85.3889 75.176 86.4239 74.0199 86.5421C72.7075 86.6604 71.7701 86.0099 70.0203 83.7625C68.4892 81.8108 67.2706 81.1011 66.7394 81.8995C66.5832 82.1361 66.4582 82.9641 66.4582 83.7329C66.4582 86.1282 65.552 87.1631 63.4272 87.1927C62.8023 87.1927 62.7085 87.3406 62.7085 88.4938C62.7085 91.303 60.74 93.4617 57.1154 94.6445C55.2406 95.2655 54.4906 95.3247 49.2724 95.3247C43.9605 95.3247 43.3355 95.2655 41.6794 94.615C39.3047 93.7278 37.8986 92.5154 37.2111 90.8595C36.7737 89.7654 36.7112 88.9669 36.8674 86.2169C37.2111 80.6871 38.211 75.2166 39.2109 73.1762C40.8358 69.953 43.8667 67.0846 47.7413 65.1625C52.1471 62.9743 55.6468 62.7968 59.4276 64.5415ZM28.3058 68.6814C32.2116 70.6035 34.9614 78.8833 32.2741 80.5689C31.1805 81.2194 30.1181 80.835 28.0246 79.0312C25.5873 76.8725 24.7749 75.0983 24.7437 71.9342C24.7437 69.953 24.8686 69.3911 25.3373 68.8884C26.0248 68.1491 27.0872 68.09 28.3058 68.6814ZM56.3654 98.3409C57.1154 98.8436 57.2404 99.1393 57.2404 100.381C57.2404 101.771 57.1779 101.86 55.9905 102.422C54.9593 102.924 54.1157 103.013 50.991 103.013C47.0226 103.013 45.4603 102.658 44.8666 101.653C44.4292 100.884 45.0541 100.086 46.8039 99.1984C50.0848 97.4833 54.6156 97.0989 56.3654 98.3409Z" fill="#212529"/>
<path d="M44.3966 76.1027C43.8967 77.2855 46.2089 79.178 48.8961 79.8582C50.6772 80.3017 54.833 80.3609 56.4266 79.9469C58.6452 79.385 60.4887 78.3796 61.1449 77.3446C62.4885 75.3043 61.8948 75.2155 57.9577 76.8715C51.7084 79.5624 49.2711 79.5624 47.3963 76.9602C46.8026 76.0731 46.3339 75.7774 45.584 75.7182C44.8653 75.6591 44.5216 75.7774 44.3966 76.1027Z" fill="#212529"/>
</svg>
