<svg width="568" height="500" viewBox="0 0 568 500" fill="none" xmlns="http://www.w3.org/2000/svg">
<path d="M255.366 3.74117C255.177 5.81474 255.035 11.3142 255.035 15.9571V24.4317H260.133C262.918 24.4767 267.355 24.5218 270.045 24.5669L274.859 24.6571V22.268V19.8789L276.417 20.0141L277.927 20.1493L277.833 30.0663C277.786 35.5207 277.597 44.8968 277.408 50.8921L277.125 61.8459H274.812H272.499L272.452 68.3821C272.452 71.9883 272.452 76.4058 272.405 78.1639V81.4545L276.795 81.5447C279.249 81.6348 286.801 81.725 293.645 81.77L306.012 81.9053V72.1235V62.3417L303.793 62.2065L301.528 62.0712V56.2112C301.528 52.9656 301.622 43.5895 301.764 35.3855L302 20.3747H303.51C305.021 20.3747 305.021 20.4198 305.162 22.7187L305.304 25.1078H315.074H324.798L325.081 13.1173L325.364 1.08161L318.85 0.81115C315.31 0.675919 299.64 0.405449 284.016 0.270218L255.649 -0.000244141L255.366 3.74117Z" fill="#212529"/>
<path d="M342.687 6.49238C342.309 7.79962 340.988 11.9467 339.808 15.6881C338.628 19.4296 337.636 22.6301 337.636 22.8104C337.636 22.9456 338.58 23.3062 339.76 23.5767C340.94 23.8472 341.884 24.2979 341.884 24.6135C341.884 25.1544 339.666 32.1865 333.341 51.8402C329.754 63.1095 329.329 64.1463 328.432 63.966C324.467 63.0644 324.515 63.0644 324.279 63.9209C324.137 64.4167 322.815 68.6089 321.352 73.2519C319.842 77.8949 318.709 81.7715 318.803 81.8617C319.039 81.9518 335.276 86.73 344.669 89.3896C348.115 90.3813 350.994 91.1476 351.089 91.0574C351.325 90.6968 357.036 72.5757 356.894 72.4856C356.847 72.4405 355.761 72.0799 354.581 71.7193L352.363 71.0882L354.109 65.6789C355.101 62.7038 356.092 60.3147 356.375 60.3598C357.933 60.6302 368.6 63.7857 368.883 64.0561C369.119 64.2364 368.458 66.7608 367.514 69.6908C365.957 74.469 365.674 74.9648 364.824 74.6944C361.567 73.8379 361.284 73.883 360.765 75.1902C360.481 75.8664 359.113 80.0586 357.744 84.4762L355.242 92.4548L357.413 93.131C358.593 93.4916 362.039 94.5284 365.013 95.3849C367.986 96.2413 374.264 98.0895 378.89 99.4418C383.563 100.839 387.386 101.921 387.433 101.831C387.48 101.786 388.66 98.2698 389.982 94.0776C391.351 89.8404 392.672 85.8285 392.908 85.1072C393.522 83.214 393.522 83.214 391.209 82.5829C390.029 82.2674 389.085 81.7715 389.085 81.5011C389.085 81.2306 389.699 79.2021 390.454 76.9482C391.209 74.7395 393.899 66.4001 396.401 58.4665C398.903 50.5329 401.168 43.5459 401.404 42.9599C401.782 42.1035 402.065 41.9682 403.151 42.2387C403.859 42.3739 404.85 42.5993 405.416 42.7346C406.502 43.005 406.172 43.7713 409.853 32.1414C411.175 28.0393 412.072 24.5684 411.883 24.3881C411.647 24.2078 408.956 23.3062 405.841 22.4047C402.726 21.5031 397.534 19.9705 394.277 19.0239C384.365 16.0488 380.353 15.012 380.07 15.3275C379.834 15.598 377.568 22.4047 374.972 30.6538C374.122 33.3134 374.122 33.5388 374.83 33.7642C375.255 33.8994 376.294 34.3051 377.143 34.6206L378.606 35.1616L377.19 39.3988C376.435 41.6978 375.774 43.6361 375.727 43.6361C375.538 43.7713 363.125 39.9398 362.889 39.6693C362.605 39.3988 364.777 31.7357 365.202 31.2849C365.343 31.1948 366.382 31.4201 367.562 31.7808C368.742 32.1865 369.78 32.3668 369.922 32.1865C370.63 31.0595 375.822 13.84 375.538 13.6146C375.302 13.4343 373.131 12.7581 370.677 12.0369C367.184 11.0903 348.209 5.54575 344.197 4.37374C343.631 4.19344 343.253 4.68929 342.687 6.49238Z" fill="#212529"/>
<path d="M222.229 6.8553C220.435 7.30608 213.922 8.83871 207.833 10.191C198.393 12.3547 184.421 15.6003 182.486 16.1412C182.014 16.2314 182.061 16.7723 182.533 18.35C182.911 19.477 183.194 20.5588 183.194 20.7391C183.241 20.9194 184.044 24.2101 184.988 28.1318L186.781 35.1639L188.386 34.9385L190.038 34.668L189.66 38.2291C189.472 40.1675 189.236 42.6016 189.141 43.5933C189.047 44.585 188.339 52.7891 187.584 61.8046C186.592 73.7952 186.026 78.3029 185.601 78.5733C185.224 78.7537 184.138 79.0692 183.194 79.2044C182.203 79.3847 181.4 79.7454 181.4 80.0158C181.4 80.6469 186.026 98.4525 186.262 98.6328C186.309 98.7229 189.66 98.0017 193.673 97.0551C197.685 96.1084 204.717 94.4406 209.249 93.4038C213.78 92.367 217.65 91.3753 217.839 91.195C218.028 91.0147 217.226 87.0479 216.046 82.3598C213.308 71.3159 213.638 72.1724 212.27 72.4879C211.326 72.7133 211.137 72.5781 211.137 71.8117C211.137 70.82 210.854 70.9102 220.01 68.7916C224.589 67.7097 225.439 67.6196 225.816 68.2056C226.477 69.1973 226.335 69.5128 225.25 69.5128C224.4 69.5128 224.259 69.6931 224.542 70.7299C225.911 76.635 228.979 88.4904 229.167 88.6707C229.262 88.8059 232.66 88.0847 236.672 87.138C240.684 86.1463 247.764 84.5236 252.437 83.4868C257.11 82.45 261.075 81.5034 261.264 81.4132C261.453 81.278 261.169 79.8355 260.697 78.1677C260.225 76.4998 259.14 72.3978 258.337 69.062C257.535 65.7263 256.685 62.8414 256.497 62.616C256.308 62.4357 255.175 62.5709 253.995 62.9315L251.824 63.5175L249.652 60.0916C248.425 58.1984 242.95 49.8591 237.522 41.5649C232.094 33.2706 227.657 26.3287 227.657 26.1484C227.657 25.9681 228.412 25.6976 229.309 25.5173C230.678 25.2919 230.914 25.0666 230.772 24.2552C230.395 22.5873 226.713 7.57654 226.43 6.72007C226.288 6.31438 226.052 5.95376 225.863 5.99883C225.675 6.04391 224.07 6.40453 222.229 6.8553ZM213.025 43.6835C213.686 44.9006 215.432 47.6052 216.942 49.814C218.689 52.4285 219.444 53.8259 219.066 53.9611C217.934 54.3217 210.429 55.9445 210.334 55.8093C210.051 55.5839 211.326 41.5649 211.562 41.5649C211.703 41.5649 212.364 42.5115 213.025 43.6835Z" fill="#212529"/>
<path d="M109.986 48.5054C98.6109 55.0416 89.0763 60.5861 88.7931 60.8566C88.4155 61.2172 89.6427 63.5162 93.1356 69.1508C95.7788 73.4332 98.1389 77.1295 98.3749 77.3549C98.6109 77.6254 99.5549 77.4 100.735 76.7689C101.773 76.1829 102.812 75.9124 103.048 76.0927C103.237 76.3181 108.334 84.387 114.329 94.0335C122.589 107.286 125.138 111.659 124.666 111.974C124.335 112.2 123.438 112.696 122.73 113.056C121.881 113.462 121.456 114.003 121.645 114.363C121.834 114.859 130.99 129.87 131.604 130.681C131.651 130.772 173.849 106.79 174.698 106.204C174.84 106.114 176.303 100.119 178.38 91.1486L179.182 87.7678L172.763 77.6254C168.657 71.0891 166.061 67.4379 165.494 67.3477C165.022 67.2576 163.559 66.897 162.19 66.5363C159.594 65.8151 159.688 65.9503 160.396 62.7498C161.293 59.0084 161.388 59.2789 155.912 50.579C153.033 45.9811 150.39 42.0143 150.107 41.6987C149.587 41.248 132.123 36.5599 131.132 36.6501C130.849 36.6501 121.362 42.0143 109.986 48.5054ZM134.059 60.1354C134.389 60.3607 135.191 61.5328 135.899 62.6597C137.221 64.7783 137.457 66.4913 136.56 67.483C135.663 68.5197 128.442 72.3062 128.064 71.9005C127.167 70.9088 123.297 64.4177 123.438 64.0571C123.533 63.8317 125.374 62.6597 127.592 61.3975C131.51 59.2338 132.595 59.0084 134.059 60.1354ZM150.248 85.8294C151.051 86.8662 153.316 90.4273 154.119 91.9149C155.11 93.8081 154.26 95.0252 150.06 97.4143C147.888 98.6765 145.906 99.7133 145.717 99.7133C145.103 99.6682 138.684 89.2102 139.203 89.0299C139.439 88.9398 141.327 87.8579 143.404 86.6408C147.463 84.2517 148.879 84.1165 150.248 85.8294Z" fill="#212529"/>
<path d="M434.299 37.5979C433.921 38.1839 431.514 41.8352 429.012 45.802C425.425 51.3014 424.528 53.0594 425.047 53.3299C425.378 53.5553 425.755 53.7356 425.897 53.7356C426.039 53.7356 426.511 54.0512 426.983 54.3667C427.785 54.9527 427.738 55.1781 425.991 57.8376C424.953 59.4154 420.516 66.3122 416.174 73.1189C411.784 79.9255 407.442 86.6871 406.498 88.0845L404.798 90.6089L403.43 89.7524C401.305 88.4452 402.202 87.4985 395.311 98.1368C393.234 101.382 391.346 104.312 391.205 104.718C390.969 105.304 392.054 106.115 395.783 108.324C398.473 109.902 403.477 112.832 406.922 114.906C410.368 116.979 413.389 118.647 413.578 118.647C414.002 118.647 424.481 102.825 424.481 102.239C424.481 102.104 423.867 101.698 423.065 101.292C422.31 100.887 421.649 100.391 421.649 100.165C421.649 99.7145 429.815 86.8675 443.644 65.591L444.305 64.5992L445.957 65.5459C446.901 66.0417 447.704 66.4023 447.798 66.3122C447.845 66.222 448.364 65.4106 448.884 64.5542C449.403 63.6977 451.763 60.0014 454.076 56.3952L458.324 49.8139L447.137 43.1875C441.001 39.5813 435.715 36.6062 435.479 36.6062C435.195 36.6062 434.676 37.057 434.299 37.5979Z" fill="#212529"/>
<path d="M467.809 69.6929L460.823 76.5446L462.57 78.1674L464.316 79.8353L457.236 86.9575C453.366 90.8341 446.522 97.6859 441.99 102.103L433.73 110.127L431.937 108.414L430.096 106.701L428.397 108.504C427.452 109.496 424.29 112.697 421.316 115.582L415.936 120.901L425.045 129.375C430.049 134.018 435.618 139.157 437.365 140.735L440.621 143.665L447.702 136.768L454.829 129.871L452.988 128.068L451.194 126.31L456.528 121.216C459.596 118.331 461.72 116.573 461.579 117.159C461.39 117.7 461.154 118.512 461.059 118.962C460.54 121.487 455.348 142.358 453.932 147.947L452.233 154.438L462.287 163.814L472.387 173.19L479.562 166.113L486.736 159.036L485.084 157.504C484.188 156.692 483.48 155.881 483.48 155.746C483.48 155.61 490.324 148.849 498.678 140.645L513.83 125.814L515.576 127.437L517.322 129.06L524.45 122.028L531.624 114.996L522.278 106.296C517.181 101.563 511.611 96.4688 510.006 94.9813L506.985 92.2766L499.905 99.1734L492.778 106.07L494.525 107.783L496.224 109.451L490.984 114.725C488.105 117.61 485.556 119.999 485.32 119.999C485.037 119.999 484.99 119.774 485.132 119.548C485.368 119.188 488.624 106.386 489.852 100.841C489.993 100.345 490.701 97.4154 491.504 94.3051C492.259 91.1948 493.345 86.9575 493.864 84.8389L494.808 81.0073L485.132 71.8566C479.798 66.853 475.267 62.796 475.078 62.796C474.889 62.8411 471.632 65.9514 467.809 69.6929Z" fill="#212529"/>
<path d="M276.041 105.391C274.766 105.526 271.226 105.887 268.253 106.292C242.481 109.538 224.073 121.078 213.406 140.551C210.479 145.96 209.394 147.493 208.544 147.493C207.93 147.493 207.081 145.104 207.317 143.977C207.364 143.707 207.222 143.436 206.986 143.436C206.467 143.436 205.948 146.727 205.948 150.062C205.948 151.37 205.665 153.128 205.287 153.939C204.485 155.787 198.679 161.016 194.62 163.496C192.921 164.577 191.221 165.794 190.844 166.2C190.372 166.786 190.325 168.409 190.608 174.449C191.127 184.411 190.985 187.251 189.853 190.136C188.389 193.833 183.905 197.078 180.271 197.078C178.902 197.078 179.468 198.16 182.536 201.135C184.236 202.758 185.699 204.561 185.888 205.192C186.077 206.003 185.51 207.626 183.764 211.007C182.442 213.576 180.932 216.281 180.412 216.957L179.516 218.174L182.159 219.482C186.218 221.375 186.737 222.592 186.407 229.083C186.265 231.923 185.605 236.791 184.944 239.902C184.283 243.012 183.575 246.844 183.386 248.466C182.961 252.343 182.961 266.632 183.433 271.411C184.472 282.41 187.681 301.026 190.561 312.927C192.59 321.266 192.59 321.537 190.797 323.205C189.947 323.971 188.295 324.963 187.115 325.368C185.935 325.819 184.755 326.27 184.566 326.45C184.377 326.63 185.274 327.532 186.596 328.524C189.145 330.372 190.985 332.581 191.788 334.88C192.496 336.728 191.929 337.81 188.861 340.469L186.454 342.543L188.767 344.03C195.469 348.403 203.635 356.021 212.32 366.163C222.515 378.019 227.613 382.797 230.115 382.797C230.587 382.797 231.861 382.166 233.041 381.399C237.525 378.379 243 379.957 250.458 386.358C256.641 391.677 262.353 395.058 264.146 394.382C264.477 394.246 265.043 393.3 265.373 392.308C266.223 389.468 267.073 389.468 269.858 392.353C273.634 396.23 276.89 397.176 287.605 397.537C296.29 397.808 303.606 397.176 305.683 395.914C306.532 395.418 309.128 392.669 311.441 389.739C314.037 386.538 316.397 384.104 317.436 383.518L319.229 382.571L321.117 383.608C322.864 384.555 323.005 384.555 323.005 383.834C323.053 382.526 324.28 381.399 330.557 376.937C353.544 360.574 371.764 343.129 381.157 328.479C384.555 323.25 385.216 321.987 386.585 318.156C388.237 313.513 388.803 309.366 388.142 307.022C387.812 305.94 385.688 301.207 383.375 296.429C377.711 284.709 376.672 281.688 376.908 277.316C377.097 273.394 378.23 270.825 381.062 267.714C383.186 265.415 383.233 265.235 382.195 262.44C381.298 259.961 381.204 252.073 382.101 248.466C382.478 246.844 382.667 241.885 382.667 234.357C382.714 223.809 382.809 222.637 383.564 222.141C384.555 221.42 384.602 220.969 383.705 220.969C381.865 220.969 380.732 216.326 382.289 215.064C382.667 214.748 384.177 214.388 385.593 214.298L388.189 214.072L387.293 213.126C386.018 211.773 385.782 210.962 385.027 205.868C384.272 200.684 384.319 200.729 382.997 195.951C376.861 173.232 357.179 136.629 344.954 125.225C334.57 115.533 318.427 108.772 299.405 106.247C294.024 105.526 280.572 105.03 276.041 105.391ZM290.437 160.295C300.302 162.729 307.288 167.147 310.261 172.917C313.093 178.371 312.574 182.203 308.704 184.592C306.816 185.809 302.237 187.341 299.264 187.882C298.461 187.973 297.706 188.198 297.517 188.288C296.573 188.829 285.623 189.415 274.058 189.46C255.178 189.595 249.514 190.001 241.112 191.804C232.003 193.833 225.961 193.923 222.232 192.12C219.636 190.857 218.031 188.964 217.559 186.44C217.134 184.321 218.645 181.346 224.828 172.286C230.067 164.577 230.728 163.721 231.389 163.721C231.672 163.721 232.758 164.532 233.796 165.479C236.156 167.598 236.392 167.282 236.062 162.774C235.873 160.295 235.968 159.529 236.487 159.348C236.864 159.213 238.894 159.754 241.018 160.566L244.888 162.053L251.733 161.783C255.509 161.602 259.473 161.287 260.606 161.016C261.692 160.791 263.344 160.43 264.288 160.295C265.232 160.16 266.459 159.979 266.978 159.844C267.545 159.754 268.819 159.574 269.905 159.393C270.943 159.258 271.887 159.033 272.029 158.898C272.17 158.762 275.238 158.762 278.873 158.898C283.876 159.078 286.661 159.393 290.437 160.295ZM268.017 203.569C274.672 206.725 279.958 211.954 285.434 220.834C287.18 223.629 289.776 227.1 291.192 228.632C293.694 231.157 293.835 231.472 293.599 233.005C293.175 235.349 291.806 236.927 290.059 237.107C288.077 237.287 286.661 236.295 284.018 232.87C281.705 229.894 279.864 228.813 279.062 230.03C278.826 230.39 278.637 231.652 278.637 232.824C278.637 236.476 277.268 238.053 274.058 238.099C273.114 238.099 272.973 238.324 272.973 240.082C272.973 244.364 269.999 247.655 264.524 249.458C261.692 250.405 260.559 250.495 252.677 250.495C244.652 250.495 243.708 250.405 241.207 249.413C237.62 248.061 235.496 246.212 234.457 243.688C233.796 242.02 233.702 240.803 233.938 236.611C234.457 228.182 235.968 219.842 237.478 216.732C239.932 211.818 244.511 207.446 250.364 204.516C257.019 201.18 262.305 200.91 268.017 203.569ZM221.005 209.88C226.905 212.81 231.059 225.432 226.999 228.001C225.347 228.993 223.743 228.407 220.58 225.657C216.898 222.367 215.671 219.662 215.624 214.839C215.624 211.818 215.813 210.962 216.521 210.196C217.559 209.069 219.164 208.979 221.005 209.88ZM263.391 255.093C264.524 255.859 264.713 256.31 264.713 258.203C264.713 260.322 264.618 260.457 262.825 261.313C261.267 262.08 259.993 262.215 255.273 262.215C249.278 262.215 246.918 261.674 246.021 260.141C245.36 258.969 246.304 257.752 248.948 256.4C253.904 253.785 260.748 253.199 263.391 255.093Z" fill="#212529"/>
<path d="M245.312 221.193C244.557 222.996 248.05 225.881 252.109 226.918C254.8 227.594 261.077 227.684 263.485 227.053C266.836 226.197 269.621 224.664 270.612 223.086C272.642 219.976 271.745 219.841 265.797 222.365C256.357 226.467 252.676 226.467 249.844 222.5C248.947 221.148 248.239 220.697 247.106 220.607C246.02 220.517 245.501 220.697 245.312 221.193Z" fill="#212529"/>
<path d="M10.1097 150.111C4.30407 160.614 -0.227187 169.404 0.00881619 169.584C0.197619 169.765 4.25687 171.838 8.97693 174.182L17.6146 178.464L18.4642 177.157L19.3611 175.805L23.0899 179.636C25.1195 181.755 32.3412 188.877 39.0437 195.504L51.2687 207.494L50.2774 209.523C49.6638 210.65 49.3334 211.686 49.4278 211.867C49.8054 212.408 67.0809 220.747 67.3169 220.522C67.7889 220.071 82.2794 193.385 82.2794 193.024C82.2794 192.574 65.2872 184.009 64.3904 184.009C64.1072 184.009 63.8712 184.325 63.8712 184.685C63.8712 185.542 63.2104 185.542 62.5024 184.73C62.0776 184.234 62.644 182.837 65.1456 178.194C67.7889 173.326 68.5441 172.289 69.4409 172.289C70.6209 172.289 70.7625 172.74 69.9129 173.596C69.1577 174.272 68.5913 173.912 79.4474 179.321L87.7075 183.468L95.2596 169.674C99.4133 162.101 102.859 155.746 102.953 155.565C103.095 155.25 101.301 154.258 90.2092 148.668L85.2059 146.144L83.9787 148.173C83.0819 149.615 82.4211 150.201 81.6658 150.201C80.769 150.201 77.7482 149.75 71.4233 148.623C70.5265 148.488 69.2521 148.263 68.5913 148.173C61.5112 147.181 37.6749 143.394 37.5333 143.214C37.3917 143.079 37.6277 142.312 38.0053 141.501L38.7605 139.968L35.8813 138.571C34.2764 137.805 30.17 135.776 26.7716 134.063L20.5883 130.953L10.1097 150.111ZM44.047 165.753C44.7078 165.888 46.9262 166.249 49.003 166.519C51.0799 166.789 53.0151 167.15 53.2983 167.285C53.6759 167.466 53.0623 168.908 51.5991 171.523L49.3806 175.489L44.1414 170.215C41.2149 167.33 38.8549 164.941 38.8549 164.851C38.8549 164.761 41.3565 165.167 44.047 165.753Z" fill="#212529"/>
<path d="M509.211 152.412L483.722 163.546L480.041 172.246L476.406 180.946L483.581 196.047C488.678 206.685 491.086 211.283 491.746 211.508C492.266 211.733 496.419 213.131 500.998 214.618L509.305 217.368L524.268 210.832C532.481 207.226 539.419 204.296 539.655 204.296C539.938 204.296 540.127 204.161 540.127 203.935C540.127 203.259 528.138 178.602 527.808 178.602C527.336 178.602 511.712 185.363 511.193 185.814C511.004 185.949 511.24 186.986 511.759 188.113C512.326 189.195 512.751 190.322 512.751 190.592C512.751 191.359 507.039 193.522 505.812 193.207C504.774 192.936 504.066 191.809 501.234 185.634C499.251 181.306 498.496 181.847 519.076 172.832C533.944 166.341 537.201 165.078 538.333 165.349C539.608 165.574 540.033 166.205 542.062 170.307C543.337 172.832 544.375 175.221 544.375 175.536C544.375 176.934 542.77 178.061 538.286 179.954C535.643 181.081 533.519 182.163 533.519 182.433C533.519 183.019 542.44 201.636 542.959 202.177C543.337 202.583 559.762 195.641 560.707 194.694C561.273 194.153 567.975 178.241 567.975 177.475C567.975 177.249 564.766 170.353 560.848 162.148L553.674 147.273L544.422 144.208C539.325 142.54 535.077 141.187 534.935 141.233C534.793 141.233 523.229 146.236 509.211 152.412Z" fill="#212529"/>
<path d="M192.254 428.778V438.695H193.859H195.464L193.953 443.293C193.104 445.862 189.894 455.283 186.779 464.254L181.162 480.617H178.708H176.206V490.308V500H192.726H209.246V490.353V480.662L208.114 480.527C207.17 480.391 207.075 480.256 207.406 479.355C207.783 478.363 207.878 478.363 215.005 478.453C222.085 478.588 222.227 478.588 222.368 479.58C222.51 480.391 222.274 480.617 221.566 480.617C220.575 480.617 220.575 480.797 220.575 490.308V500H237.095H253.615V490.308V480.617H251.113H248.659L241.626 460.197C237.756 449.018 234.499 439.596 234.404 439.281C234.263 438.965 234.876 438.695 236.009 438.605L237.803 438.469L237.944 428.643L238.039 418.861H215.147H192.254V428.778ZM215.383 451.046C215.383 451.407 216.232 454.066 217.318 457.041C218.356 459.971 219.347 462.721 219.489 463.127C219.725 463.848 219.3 463.938 214.958 463.938C212.362 463.938 210.19 463.803 210.19 463.623C210.19 462.766 214.722 450.415 215.005 450.415C215.241 450.415 215.383 450.685 215.383 451.046Z" fill="#212529"/>
<path d="M259.378 428.643L259.519 438.469L261.785 438.605L264.003 438.74V459.701V480.617H261.643H259.283V490.308V500H276.039H292.796V490.353V480.662L290.341 480.527L287.84 480.391V475.298V470.204H298.696H309.552L316.302 463.397L323.004 456.545V444.42V432.294L316.302 425.577L309.552 418.861H284.394H259.283L259.378 428.643ZM298.554 439.461C299.262 440.047 299.404 440.904 299.404 444.465C299.404 450.37 299.357 450.415 292.701 450.415H287.604V444.555V438.695H292.654C296.666 438.695 297.846 438.83 298.554 439.461Z" fill="#212529"/>
<path d="M328.659 428.778V438.695H331.019H333.379V459.656V480.617H331.019H328.659V490.308V500H358.632H388.604V488.731V477.461H378.975H369.299L369.157 478.904L369.016 480.391L363.021 480.527L356.98 480.662V474.982C356.98 470.294 357.074 469.347 357.688 469.347C358.16 469.347 358.396 469.843 358.396 470.925V472.503L368.072 472.413L377.795 472.277V459.43V446.583L368.072 446.448L358.396 446.358V448.161C358.396 449.468 358.207 449.964 357.688 449.964C357.074 449.964 356.98 449.018 356.98 444.33V438.695H363.116H369.252V440.273V441.85H378.928H388.604V430.356V418.861H358.632H328.659V428.778Z" fill="#212529"/>
</svg>
