<svg width="32" height="32" viewBox="0 0 32 32" fill="none" xmlns="http://www.w3.org/2000/svg">
<path fill-rule="evenodd" clip-rule="evenodd" d="M14.3431 3.67664C15.8434 2.17635 17.8783 1.3335 20 1.3335H24C24.7364 1.3335 25.3333 1.93045 25.3333 2.66683V8.00016C25.3333 8.73654 24.7364 9.3335 24 9.3335H20V12.0002H24C24.4106 12.0002 24.7983 12.1893 25.0509 12.5129C25.3036 12.8366 25.3931 13.2586 25.2935 13.6569L23.9602 18.9902C23.8118 19.5838 23.2785 20.0002 22.6667 20.0002H20V29.3335C20 30.0699 19.403 30.6668 18.6667 30.6668H13.3333C12.597 30.6668 12 30.0699 12 29.3335V20.0002H9.33333C8.59695 20.0002 8 19.4032 8 18.6668V13.3335C8 12.5971 8.59695 12.0002 9.33333 12.0002H12V9.3335C12 7.21176 12.8429 5.17693 14.3431 3.67664ZM20 4.00016C18.5855 4.00016 17.229 4.56207 16.2288 5.56226C15.2286 6.56245 14.6667 7.91901 14.6667 9.3335V13.3335C14.6667 14.0699 14.0697 14.6668 13.3333 14.6668H10.6667V17.3335H13.3333C14.0697 17.3335 14.6667 17.9304 14.6667 18.6668V28.0002H17.3333V18.6668C17.3333 17.9304 17.9303 17.3335 18.6667 17.3335H21.6256L22.2923 14.6668H18.6667C17.9303 14.6668 17.3333 14.0699 17.3333 13.3335V9.3335C17.3333 8.62625 17.6143 7.94797 18.1144 7.44788C18.6145 6.94778 19.2928 6.66683 20 6.66683H22.6667V4.00016H20Z" fill="white"/>
</svg>
