<svg width="471" height="46" viewBox="0 0 471 46" fill="none" xmlns="http://www.w3.org/2000/svg">
<g clip-path="url(#clip0_628_588)">
<path d="M44.877 13.2221V5.25019C44.877 5.25019 24.5842 -6.56163 7.96858 5.25019C5.4377 7.52053 3.41833 10.3033 2.04445 13.414C0.670563 16.5246 -0.0264219 19.892 -0.000266788 23.2927C-0.000266788 35.0411 9.2267 41.3348 9.2267 41.3348C9.2267 41.3348 24.1635 51.8239 45.5533 41.3348V21.1943H22.4387V28.7473H37.1647V36.2989C37.1647 36.2989 9.64672 46.0006 10.0657 23.0126C10.0657 23.0126 8.80789 10.285 22.4385 8.60653C22.4385 8.60653 31.4558 6.0891 44.877 13.2221Z" fill="#231F20"/>
<path d="M80.5269 0.0283203H72.1387V45.9965H80.5269V0.0283203Z" fill="#231F20"/>
<path d="M101.917 0.0285645H111.563L125.404 33.362L139.664 0.0285645H149.73L129.178 44.9478H121.629L101.917 0.0285645Z" fill="#231F20"/>
<path d="M169.861 0.0285645V45.9965H207.189V37.5579H179.088V26.6486H198.801V19.5158H179.088V8.60649H207.189V0.0285645H169.861Z" fill="#231F20"/>
<path d="M231.515 44.9478H240.324V15.3205L267.585 44.9478H275.133V0.0285645H266.746V30.8459L238.807 0.0285645H231.515V44.9478Z" fill="#231F20"/>
<path d="M339.304 14.4814C339.304 14.4814 336.368 8.60719 321.688 8.18767C321.688 8.18767 303.654 8.04661 304.493 23.0126C305.332 37.9785 321.884 37.1394 321.884 37.1394C321.884 37.1394 337.207 36.7192 339.304 31.6847V41.1723C339.304 41.1723 335.918 44.9481 321.884 45.9965C321.884 45.9965 295.265 46.7894 295.265 24.9708C295.265 24.9708 293.588 -0.578071 320.011 0.0284529C320.011 0.0284529 334.691 -0.204414 339.304 3.99159V14.4814Z" fill="#231F20"/>
<path d="M363.211 0.0285645H372.438V19.0977H396.344V0.0285645H405.153V44.9478H396.764V27.0694H372.019V44.9478H363.211V0.0285645Z" fill="#231F20"/>
<path d="M440.803 26.65V44.9478H450.029V26.65L471 0.0285645H460.095L445.415 18.6782L431.576 0.0285645H420.251L440.803 26.65Z" fill="#231F20"/>
</g>
<defs>
<clipPath id="clip0_628_588">
<rect width="471" height="46" fill="white"/>
</clipPath>
</defs>
</svg>
