<svg width="860" height="829" viewBox="0 0 860 829" fill="none" xmlns="http://www.w3.org/2000/svg">
<path d="M104 211V381H250H396V347V313H284H172V211V109H250H328V143V177H294H260V211V245H328H396V143V41H250H104V211Z" fill="#212529"/>
<path d="M464 143V245H532H600V211V177H566H532V143V109H610H688V211V313H576H464V347V381H610H756V211V41H610H464V143Z" fill="#212529"/>
<path d="M104 619V789H250H396V687V585H328H260V619V653H294H328V687V721H250H172V619V517H284H396V483V449H250H104V619Z" fill="#212529"/>
<path d="M464 483V517H576H688V619V721H610H532V687V653H566H600V619V585H532H464V687V789H610H756V619V449H610H464V483Z" fill="#212529"/>
</svg>
