<svg width="32" height="32" viewBox="0 0 32 32" fill="none" xmlns="http://www.w3.org/2000/svg">
<path fill-rule="evenodd" clip-rule="evenodd" d="M9.33331 4.00016C6.38779 4.00016 3.99998 6.38798 3.99998 9.3335V22.6668C3.99998 25.6123 6.38779 28.0002 9.33331 28.0002H22.6666C25.6122 28.0002 28 25.6123 28 22.6668V9.3335C28 6.38798 25.6122 4.00016 22.6666 4.00016H9.33331ZM1.33331 9.3335C1.33331 4.91522 4.91503 1.3335 9.33331 1.3335H22.6666C27.0849 1.3335 30.6666 4.91522 30.6666 9.3335V22.6668C30.6666 27.0851 27.0849 30.6668 22.6666 30.6668H9.33331C4.91503 30.6668 1.33331 27.0851 1.33331 22.6668V9.3335Z" fill="white"/>
<path fill-rule="evenodd" clip-rule="evenodd" d="M16.6444 11.9858C15.8122 11.8624 14.9622 12.0046 14.2154 12.3921C13.4686 12.7796 12.863 13.3927 12.4847 14.1442C12.1065 14.8957 11.9748 15.7474 12.1085 16.578C12.2421 17.4087 12.6343 18.1761 13.2292 18.771C13.8242 19.3659 14.5915 19.7581 15.4222 19.8918C16.2528 20.0254 17.1045 19.8938 17.856 19.5155C18.6075 19.1372 19.2207 18.5316 19.6082 17.7848C19.9957 17.038 20.1378 16.1881 20.0144 15.3558C19.8885 14.5069 19.4929 13.721 18.8861 13.1141C18.2792 12.5073 17.4933 12.1117 16.6444 11.9858ZM12.9872 10.0251C14.2319 9.37923 15.6485 9.14231 17.0356 9.348C18.4504 9.5578 19.7603 10.2171 20.7717 11.2285C21.7831 12.2399 22.4424 13.5498 22.6522 14.9647C22.8579 16.3517 22.621 17.7684 21.9752 19.013C21.3293 20.2577 20.3075 21.267 19.0549 21.8975C17.8024 22.5279 16.383 22.7473 14.9985 22.5246C13.6141 22.3018 12.3352 21.6481 11.3436 20.6566C10.3521 19.6651 9.69844 18.3861 9.47567 17.0017C9.25289 15.6172 9.47233 14.1978 10.1028 12.9453C10.7332 11.6928 11.7425 10.6709 12.9872 10.0251Z" fill="white"/>
<path fill-rule="evenodd" clip-rule="evenodd" d="M22 8.66683C22 7.93045 22.597 7.3335 23.3333 7.3335H23.3467C24.083 7.3335 24.68 7.93045 24.68 8.66683C24.68 9.40321 24.083 10.0002 23.3467 10.0002H23.3333C22.597 10.0002 22 9.40321 22 8.66683Z" fill="white"/>
</svg>
