<svg width="283" height="260" viewBox="0 0 283 260" fill="none" xmlns="http://www.w3.org/2000/svg">
<g clip-path="url(#clip0_1241_1537)">
<path d="M153.732 17.7218C153.623 17.1444 153.549 16.5612 153.509 15.9752C152.929 7.74959 159.216 0.616793 167.567 0.0372967C175.927 -0.536393 183.166 5.66387 183.75 13.8895C184.334 22.1151 178.044 29.2479 169.694 29.8274C169.166 29.8669 168.642 29.8738 168.13 29.8541C167.792 29.94 167.589 29.9807 167.298 30.2338C166.438 31.5531 169.484 31.3069 167.413 37.0728C167.413 37.0728 167.399 37.7057 167.169 38.3387C167.007 40.5521 166.142 47.1112 166.019 50.6045C166.458 51.1108 166.582 51.357 166.534 52.5845C166.338 54.244 165.951 58.311 165.33 60.9169C164.803 63.1502 163.877 63.5764 163.131 64.1233C162.082 68.75 161.804 72.5824 159.113 78.202C158.868 82.4617 158.564 83.6218 157.658 85.7018C157.556 91.974 157.996 92.9077 153.699 102.839C152.59 107.485 153.645 110.698 154.816 115.524C156.014 120.484 159.337 122.557 159.831 127.637C160.994 139.6 160.703 147.744 158.097 157.124L160.372 162.429C163.195 163.704 170.198 167.19 166.315 172.709C171.784 175.54 180.046 178.547 186.862 184.288C189.603 186.536 192.499 188.988 195.098 191.866C200.045 192.625 199.517 193.012 203.184 195.231C213.967 201.743 231.258 214.66 241.282 223.805C243.008 224.798 243.712 225.514 245.106 226.234C245.324 226.645 245.383 226.74 245.335 226.852C244.856 228.045 244.873 228.08 244.441 229.031C244.982 229.62 245.99 230.171 246.593 230.686C247.156 230.859 247.156 230.593 248.123 230.36C249.381 231.52 250.94 232.455 251.499 232.4C253.205 231.974 252.914 232.321 254.356 230.733C254.875 230.207 255.744 230.74 255.744 230.74C256.285 230.114 257.449 228.866 259 227.965C260.238 227.246 262.601 227.166 262.601 227.166C263.392 227.173 263.244 227.972 263.176 228.232C262.282 228.686 260.388 229.186 259.325 229.958C257.009 232.317 255.195 235.499 255.195 235.499C259.858 234.872 262.722 236.011 266.607 235.572C268.726 235.451 270.289 235.586 272.514 233.999C272.514 233.999 274.653 232.5 276.569 231.705C278.43 230.906 280.196 231.332 281.834 232.504C282.99 233.789 283.687 233.796 281.928 235.611C281.292 236.316 280.372 237.104 279.202 238.244C277.144 240.246 274.375 242.915 271.507 245.124C268.603 247.357 265.307 249.362 263.25 250.282C258.059 253.955 259.284 252.995 255.204 256.636C254.688 257.09 253.322 257.902 252.659 258.335C251.05 259.375 250.547 258.508 249.498 256.602C249.498 256.602 249.018 255.89 248.226 254.369C247.36 252.709 246.711 250.812 246.973 250.843C246.007 250.722 241.653 245.696 241.643 244.619C240.722 244.411 236.795 240.667 236.655 239.951L233.177 237.205C229.197 238.019 228.285 235.585 217.774 228.239C216.575 228.218 214.723 227.581 212.067 225.641C207.325 221.9 195.947 213.435 194.018 212.467C191.946 211.428 189.471 210.449 187.952 209.215C185.678 208.802 184.434 208.568 183.296 208.255C182.133 207.942 181.076 207.537 178.133 207.149C173.342 206.562 168.373 204.609 163.643 202.277C161.404 201.232 159.453 200.699 157.525 199.882C153.201 198.083 149.492 196.463 146.619 195.81C145.522 195.703 140.311 194.163 137.577 192.592C136.629 192.111 136.081 191.651 135.459 191.51C134.024 191.185 133.103 191.744 132.454 191.959C128.949 193.758 125.666 195.311 122.633 196.919C119.811 198.405 117.212 199.95 114.458 201.512C111.973 202.925 109.103 204.257 106.153 205.645C106.153 205.645 97.7402 209.798 93.1453 211.412C89.1587 214.617 81.0099 220.162 76.0365 222.909C73.5733 224.062 68.7885 227.048 66.5812 227.716C65.322 228.714 60.8355 231.867 57.3229 234.467C54.6086 236.467 52.5582 238.153 52.5582 238.153C50.9817 239.546 51.089 240.207 48.0917 238.952C47.2593 239.626 46.6167 240.045 46.0813 240.432C43.9165 241.979 43.7326 241.606 42.9414 241.565C41.4321 242.852 41.2423 242.187 39.9229 243.667C39.0562 244.989 39.9429 244.673 38.1153 245.314C37.7297 245.46 37.547 245.919 37.2499 246.174C35.7807 247.365 35.7748 250.733 32.2552 250.973C30.2177 252.405 30.7388 254.134 29.1824 254.059C29.2779 255.544 26.428 257.712 25.9139 257.705C21.4263 259.23 21.115 255.981 15.7277 258.406C15.0308 258.72 14.0085 259.588 12.662 259.839C10.2932 260.279 7.43032 259.818 5.68407 258.486C2.93558 256.399 0.405221 252.373 0.405221 252.373C-0.468495 250.339 0.0396988 249.054 2.76697 247.132C3.90362 246.42 4.1135 245.887 6.02247 245.758C6.97047 245.405 6.71225 245.945 8.40544 245.347C9.38645 244.999 9.38645 245.247 11.3626 245.081C11.8154 244.78 12.4521 244.673 13.3046 244.4C14.8681 243.893 16.3915 243.327 16.3915 243.327C16.3915 243.327 16.79 242.933 18.2934 243.074C19.5657 242.561 20.8721 241.799 21.5418 241.565C21.372 239.581 21.589 239.674 22.5228 238.875C23.6866 237.886 23.8965 238.048 24.7631 238.66C25.1287 238.452 25.3044 238.381 25.2643 238.079C25.1216 237.046 24.2219 236.559 24.4931 234.28C24.0934 233.368 23.505 232.241 23.6336 231.561C23.8234 230.827 24.0062 230.473 24.4589 230.239C24.94 229.987 25.0956 230.327 25.3527 230.612C25.8125 231.139 26.1851 232.7 26.1851 232.7C26.3479 234.46 26.902 236.74 28.6683 235.453C29.7107 234.413 29.9135 231.641 32.0382 232.234L33.5545 233.533C34.8409 232.341 34.9023 232.341 35.6734 231.861C35.6734 231.861 34.4683 230.662 35.5248 229.728C36.2488 229.094 37.1213 228.64 38.6719 226.948C42.9284 222.315 45.1145 220.268 49.7177 216.534C58.9017 209.095 69.3509 203.877 75.9905 201.283C78.1553 198.576 80.2612 196.777 85.066 196.323C90.7776 186.823 101.715 178.34 104.226 176.987C106.27 173.339 107.157 173.727 109.83 172.994C111.947 171.322 112.428 171.322 113.376 169.575C114.297 165.971 111.252 156.338 119.027 155.851C120.679 153.553 120.266 154.104 122.106 151.932C120.861 148.905 120.347 146.374 120.009 144.193C119.947 143.939 116.923 141.84 117.781 139.099C116.496 137.593 114.093 134.078 113.342 132.431C112.998 132.438 112.712 132.31 112.334 132.259C111.941 132.197 111.453 132.219 110.906 132.173C109.695 135.25 108.376 135.479 106.223 136.159C102.379 144.227 101.025 147.643 90.1492 154.313C85.8313 159.075 84.4506 164.38 84.4706 164.301C83.7266 165.873 83.9895 168.074 84.3822 169.254C83.8138 171 83.9624 171.173 83.9624 171.173C84.1994 171.833 84.8161 172.706 85.5731 172.892C86.8795 173.232 88.1859 173.178 88.1105 174.611C87.9348 176.404 85.5459 176.11 84.4152 175.91C80.0631 175.23 81.4379 172.437 78.6553 173.369C76.5234 174.743 75.7252 178.796 72.2456 178.27C71.7858 177.971 71.9273 177.085 72.2386 176.445C72.7267 175.445 73.5922 174.618 73.0781 174.243C70.8092 174.958 68.5441 175.685 66.2829 176.424C64.1511 176.996 61.8153 175.95 63.9141 174.569C64.8892 174.196 66.2829 173.728 68.0021 172.644C68.0021 172.644 68.8876 171.457 67.1897 172.05C65.3349 172.703 62.6006 173.109 60.6386 172.897C60.6386 172.897 56.5706 172.371 56.0495 172.056C55.5212 171.741 55.0413 170.503 56.3136 170.51C57.9243 170.524 61.958 170.056 65.085 169.236C66.5942 168.657 69.4641 166.985 71.0748 166.197C71.0748 166.197 72.821 163.691 73.782 163.198C75.3856 161.379 76.7392 160.305 78.16 158.444C79.5478 155.623 80.9828 151.159 85.5778 144.246C87.7025 141.059 90.3425 137.348 93.6652 134.029C93.6652 134.029 94.5248 128.717 98.8498 124.937C99.8048 122.723 101.253 120.117 102.681 117.704C103.236 116.777 103.763 115.971 104.291 115.091C105.632 113.018 107.04 109.159 112.264 108.552C112.264 108.552 114.498 106.926 115.357 105.77C116.698 104.644 116.392 102.892 117.482 101.657C115.817 100.058 111.561 97.0513 111.147 92.8717C110.707 88.439 112.31 84.7924 115.032 82.0935C118.05 79.1206 121.232 77.6341 125.095 77.8606C129.92 78.5666 130.834 80.1402 132.371 81.6999C133.846 83.1794 134.394 82.2271 135.016 83.9598C139.064 85.0201 138.84 84.5532 138.806 87.4867C139.429 88.3124 140.471 89.08 140.457 90.793C141.817 88.0128 142.087 87.5006 145.723 84.4406C146.582 81.9542 147.166 79.5085 147.921 77.0221C148.629 74.7227 149.51 72.3559 150.193 70.5756C149.469 65.5494 150.956 64.7168 152.94 60.3107C152.589 59.7045 152.664 59.5315 152.813 58.5374C153.584 55.6248 154.789 51.7716 155.506 49.2585C155.506 49.2585 155.743 48.2586 156.792 48.1854C157.7 45.0058 159.061 39.0865 159.289 37.8799C160.223 34.5539 159.621 33.4867 158.904 31.6135C158.674 31.0003 158.781 30.127 158.384 29.4465C157.253 27.5071 156.036 24.987 155.211 23.187C154.676 22.0407 153.829 17.7207 153.829 17.7207C153.103 15.5153 153.732 17.7218 153.732 17.7218" fill="#212529"/>
</g>
<defs>
<clipPath id="clip0_1241_1537">
<rect width="283" height="260" fill="white"/>
</clipPath>
</defs>
</svg>
