<svg width="382" height="136" viewBox="0 0 382 136" fill="none" xmlns="http://www.w3.org/2000/svg">
<g clip-path="url(#clip0_628_599)">
<path d="M42.1375 135.945C30.7554 135.493 21.4432 132.382 14.1619 126.603C12.7722 125.499 9.46092 122.189 8.35 120.794C5.3973 117.085 3.38986 113.475 2.05091 109.47C-2.06923 97.1421 0.0512575 80.965 8.11613 63.2109C15.0213 48.0112 25.6764 32.9361 44.2658 12.0571C47.0041 8.98483 55.1586 -0.000244141 55.2112 -0.000244141C55.2307 -0.000244141 54.7863 0.768791 54.227 1.70528C49.3935 9.79283 45.2578 19.3192 43.0048 27.5664C39.3855 40.7997 39.8221 52.1562 44.2833 60.9622C47.3607 67.0289 52.6366 72.2837 58.5693 75.1885C68.9554 80.2719 84.1613 80.6925 102.731 76.419C104.01 76.123 167.363 59.3229 243.517 39.0845C319.672 18.8441 381.99 2.29714 382 2.31076C382.021 2.32831 205.072 77.9668 113.215 117.207C98.6675 123.42 94.7774 124.989 87.9384 127.388C70.4561 133.521 54.7961 136.447 42.1375 135.945Z" fill="#212529"/>
</g>
<defs>
<clipPath id="clip0_628_599">
<rect width="382" height="136" fill="white"/>
</clipPath>
</defs>
</svg>
