<svg width="605" height="149" viewBox="0 0 605 149" fill="none" xmlns="http://www.w3.org/2000/svg">
<path d="M38.8236 122.76C34.6816 122.76 29.8606 124.045 26.5334 122.421C23.2062 120.798 21.2371 116.267 18.6568 113.021C15.1938 108.625 13.1568 103.755 12.7494 98.142C12.2062 91.1083 10.237 84.9539 3.78638 80.7608C-0.287713 78.1232 -0.830924 75.2827 1.00242 72.9832C2.63205 70.9543 5.21231 71.2248 8.94689 74.133C10.3049 75.1474 11.3234 76.6353 12.6136 77.785C13.6321 78.7319 14.8543 79.6787 16.1445 78.0555C17.2309 76.7029 16.8235 75.4856 15.6691 74.4035C14.5827 73.3214 13.021 72.9156 11.663 72.4422C9.4222 71.6982 8.26788 70.278 8.33578 67.8433C8.40369 64.9351 9.3543 62.568 12.1383 61.4183C14.379 60.4715 16.6198 60.4039 18.521 62.5004C19.7432 63.9207 20.626 65.4762 21.1692 67.3022C21.5087 68.5196 22.1198 69.6693 22.7309 70.7514C23.0704 71.3601 23.6136 71.9011 24.4284 71.6982C25.3791 71.4277 25.7186 70.5485 25.447 69.8046C23.6815 65.2056 23.6136 59.7275 19.1321 56.346C16.5519 54.3847 16.4161 51.6118 18.3852 49.0419C20.4223 46.4719 22.8667 46.81 25.1075 48.4332C28.5704 50.8679 31.4223 53.776 31.7618 58.4426C31.9655 60.9449 32.5087 63.4472 33.7989 65.7467C34.41 66.8964 35.3606 67.9785 36.7865 67.708C38.4162 67.3699 38.3483 65.7467 38.1445 64.597C37.3976 59.3218 36.447 54.1142 35.5643 48.9066C35.2927 47.1482 33.7309 47.3511 32.6445 47.0806C22.663 44.5782 16.5519 36.4625 16.6198 25.8444C16.6877 14.1443 22.3235 6.50197 32.6445 4.20251C43.1014 1.83543 53.6261 6.70486 57.7002 15.6998C62.1817 25.5739 59.3977 37.9504 51.3853 43.9019C51.1816 44.0372 51.0458 44.2401 50.8421 44.3077C44.3236 45.7279 44.5273 49.5829 46.7001 54.5876C47.9224 57.4281 47.3792 60.742 47.3113 63.853C47.1755 68.5196 47.515 73.1185 49.4162 77.3792C50.5705 79.9492 52.2681 81.8429 55.5273 81.5047C58.7866 81.1666 59.9409 78.8671 60.5521 76.1619C61.6385 71.4277 62.657 66.6935 65.5768 62.6357C66.4595 61.4183 67.3422 60.201 68.7002 59.457C70.941 58.3073 72.978 59.1189 72.9101 61.5536C72.7064 69.1283 74.3361 76.6353 69.6509 83.9394C65.441 90.4996 62.2496 97.5332 56.0027 102.808C51.1816 106.866 50.4347 112.818 52.2681 118.769C53.2187 121.948 51.9965 122.76 49.2804 122.827L38.8236 122.827L38.8236 122.76ZM44.1199 43.6314C47.3113 42.6169 49.2804 41.129 50.91 38.5591C56.0027 30.5786 54.1014 17.0524 47.0397 10.8304C39.7063 4.40542 27.2803 5.28461 23.4778 16.7819C20.8297 24.7623 23.2062 35.2451 29.3853 40.6556C30.4717 41.6025 31.4902 42.7522 33.3914 42.6169C32.9161 40.9938 32.4408 39.5735 32.1692 38.1533C31.4223 34.5688 33.5272 32.6075 37.126 33.3515C39.231 33.7573 40.5211 35.1099 41.6754 36.8006C43.1014 38.8972 43.5088 41.2643 44.1199 43.6314ZM530.295 148.121C521.807 148.121 513.387 147.986 504.9 148.189C498.789 148.324 494.511 145.145 491.251 140.682C489.011 137.571 486.974 134.392 484.393 131.552C482.356 129.252 480.93 126.615 480.795 123.504C480.591 119.987 482.56 118.364 486.023 119.243C490.505 120.393 493.221 123.639 495.733 127.223C498.042 130.537 500.147 133.986 502.387 137.368C503.066 138.45 503.881 139.397 504.764 140.344C506.665 142.237 508.634 144.199 511.69 143.387C514.677 142.575 514.134 139.735 514.61 137.638C515.492 134.054 516.85 130.605 518.548 127.291C522.486 119.31 524.319 110.857 524.523 101.997C524.591 98.2095 524.659 94.4222 525.338 90.6348C525.881 87.5238 526.968 84.6833 528.461 81.9105C529.48 80.0168 530.838 79.1376 532.943 79.611C535.184 80.0844 535.387 81.8428 535.32 83.6689C535.184 86.9151 534.844 90.0938 533.69 93.2048C532.671 95.9777 532.4 98.8858 533.079 101.726C534.165 106.461 533.962 111.127 532.671 115.726C532.603 115.929 532.468 116.199 532.468 116.402C532.468 117.89 531.178 120.122 533.283 120.595C535.795 121.136 536.134 118.566 536.27 116.876C536.949 109.639 538.036 102.47 538.104 95.2338C538.171 90.6349 539.869 86.7123 542.857 83.2631C543.875 82.0457 545.233 81.437 546.863 81.7752C548.628 82.181 549.036 83.6689 549.375 85.1568C550.054 88.0649 549.307 90.9054 548.628 93.6782C547.542 97.939 546.931 102.267 547.067 106.663C547.202 110.992 546.184 115.117 544.554 119.108C543.196 122.421 541.974 125.803 541.431 129.32C541.227 130.469 540.82 132.296 542.11 132.769C543.604 133.31 544.283 131.484 544.622 130.469C546.795 123.706 549.783 117.146 549.647 109.774C549.579 106.663 549.239 103.552 550.19 100.509C550.869 98.2772 551.48 95.7748 554.536 95.9777C557.523 96.113 558.338 98.6829 558.406 100.915C558.746 106.325 558.61 111.736 557.523 117.079C557.048 119.243 556.505 121.272 556.573 123.504C556.709 126.75 555.418 129.59 553.993 132.363C552.431 135.474 550.869 138.518 549.85 141.831C549.579 142.711 549.171 143.793 549.986 144.469C550.937 145.213 552.295 144.604 552.77 143.86C555.69 139.329 560.375 136.015 562.141 130.74C563.091 127.832 564.381 125.127 566.622 123.098C567.641 122.151 568.863 121.407 570.357 122.219C571.918 123.03 572.53 124.383 572.258 126.006C571.986 127.561 571.783 129.387 570.832 130.605C567.233 135.542 565.06 141.29 561.733 146.43C560.511 148.324 559.085 149 556.912 149C548.017 148.865 539.054 148.933 530.159 148.933C530.295 148.527 530.295 148.324 530.295 148.121ZM296.442 113.9C290.535 112.277 284.152 115.32 277.701 114.103C274.713 113.562 271.794 113.088 268.874 112.344C263.849 111.059 262.22 106.934 264.8 102.47C265.615 101.05 266.701 99.9003 267.991 98.8182C270.979 96.3835 273.831 93.8812 276.207 90.8378C278.991 87.2533 282.522 85.292 287.139 85.0215C290.67 84.8186 293.93 83.6689 296.849 81.64C299.43 79.7463 299.362 78.0555 296.442 76.9058C292.911 75.4855 289.312 74.4034 285.781 72.9832C282.658 71.6982 279.195 73.389 276.139 74.8769C273.559 76.0942 271.183 77.8526 268.331 78.5289C266.973 78.8671 265.818 78.8671 265.071 77.4468C264.325 76.0266 264.936 74.8769 265.954 74.1329C268.738 72.104 271.658 70.1427 275.053 69.1959C278.244 68.249 281.572 67.708 284.899 67.0317C288.497 66.2877 291.757 66.8964 294.405 69.7369C295.627 71.0219 297.189 71.8335 299.09 71.1571C299.701 70.9543 299.905 70.278 299.701 69.6693C299.09 67.9109 297.936 66.7612 296.035 66.3554C293.726 65.882 291.621 65.138 289.72 63.6501C289.312 63.312 288.633 62.9062 288.158 62.9738C283.337 64.1235 277.973 62.4328 273.491 65.9496C271.726 67.3698 268.874 69.4664 267.244 66.7611C265.683 64.1912 268.738 63.0414 270.775 62.027C273.491 60.742 275.257 58.5102 276.818 56.0078C280.281 50.3268 283.473 49.9887 287.954 54.7905C290.399 57.4281 293.047 59.8628 295.423 62.568C298.954 66.4906 303.096 67.8432 308.257 66.4906C309.275 66.2201 310.294 66.0172 311.312 65.8143C315.251 65.0704 319.461 62.5004 322.788 66.8964C327.473 73.0508 328.424 80.7607 324.553 85.5625C320.615 90.432 318.17 95.9101 315.862 101.591C312.331 109.91 306.288 113.832 296.442 113.9ZM432.517 40.5203C435.436 35.5156 437.134 30.7815 438.967 26.0473C439.307 25.1681 438.899 24.2889 438.56 23.4097C436.183 17.9316 434.01 12.3182 430.547 7.38114C430.072 6.70483 428.986 5.96089 429.597 5.01406C430.14 4.13485 431.294 4.54063 432.177 4.54063C438.764 4.54063 445.35 4.473 452.004 4.54063C452.887 4.54063 453.974 3.99959 454.517 5.08169C454.992 6.09615 454.041 6.77246 453.43 7.44877C449.492 11.98 447.387 17.4581 445.146 22.8686C444.807 23.6126 444.399 24.4241 444.739 25.1681C446.64 30.2404 448.949 35.0422 451.665 39.6411C452.751 39.1001 452.955 38.4238 453.159 37.8151C455.875 30.5786 458.659 23.4097 461.375 16.1732C463.14 11.439 462.597 9.68059 458.523 6.63719C458.048 6.23141 457.572 5.89325 457.776 5.28457C457.912 4.60826 458.523 4.47302 459.134 4.47302L470.609 4.47301C471.696 4.47301 472.239 5.08168 471.492 5.96088C464.159 14.3471 462.733 25.371 458.183 34.9746C456.893 37.6798 456.078 40.588 454.992 43.3608C454.313 45.0516 453.838 47.2158 451.597 47.2834C449.356 47.351 448.881 45.2545 448.134 43.5637C446.436 39.7764 444.739 35.989 442.973 32.2693C442.702 31.6607 442.498 30.7815 441.751 30.7138C440.733 30.6462 440.529 31.6607 440.257 32.337C438.492 36.1919 436.794 40.1145 435.029 44.0371C434.35 45.5926 433.739 47.4863 431.566 47.351C429.597 47.2158 428.782 45.525 428.103 43.9019C423.961 34.163 419.819 24.4241 415.609 14.6853C414.387 11.8448 413.029 9.00429 410.652 6.8401C410.177 6.36669 409.498 5.9609 409.77 5.14933C410.109 4.27013 410.924 4.47302 411.535 4.47302L424.708 4.47302C425.387 4.47302 426.202 4.33776 426.473 5.14933C426.745 6.23142 425.862 6.43431 425.115 6.77247C419.751 9.41008 419.751 9.47771 421.788 14.9558C424.776 23.4773 428.103 31.7959 432.517 40.5203ZM446.436 10.8303C446.708 7.7193 444.603 6.97535 442.227 6.97535C439.85 6.97535 438.22 8.19272 438.424 10.8303C438.696 13.8737 440.054 16.579 441.412 19.2166C441.955 20.3663 442.838 20.3663 443.449 19.1489C444.739 16.5113 446.097 13.8061 446.436 10.8303Z" fill="#212529"/>
<path d="M301.195 39.0997C304.658 38.8291 308.053 40.317 310.43 43.9691C312.467 47.0801 315.658 48.7709 318.442 51.0704C320.615 52.8288 323.874 54.8577 322.448 57.9687C321.158 60.8768 317.627 59.8624 314.911 59.389C312.738 59.0508 310.633 58.4421 308.393 59.1184C307.578 59.3213 306.423 59.1861 305.744 58.7127C303.096 56.8866 300.312 56.6161 297.189 56.8866C293.997 57.1572 292.028 55.2635 290.874 52.423C288.226 45.6599 293.047 39.032 301.195 39.0997V39.0997ZM488.603 46.9449C496.14 42.4136 492.609 35.3799 493.153 29.5637C493.288 27.8053 492.27 25.9792 490.98 24.6266C488.943 22.3948 486.295 22.1243 483.646 22.9359C481.134 23.7474 480.727 25.9116 480.794 28.2787C480.862 31.5926 480.794 34.9742 480.794 38.2881C480.862 41.1286 481.134 43.9015 484.461 44.9836C485.072 45.1865 485.819 45.5246 485.48 46.4714C485.208 47.2154 484.529 46.9449 483.986 47.0125L473.936 47.0125C473.393 47.0125 472.714 47.2154 472.443 46.4714C472.171 45.5246 472.986 45.2541 473.597 45.0512C476.177 44.1044 476.517 41.9401 476.517 39.7083C476.585 30.5105 476.585 21.2451 476.517 12.0473C476.517 9.61255 476.109 7.17783 473.869 5.55469C472.239 4.33733 472.918 3.52576 474.412 2.91708C475.362 2.57893 476.381 2.17316 477.331 1.76737C478.622 1.22632 479.776 -0.802612 481.134 0.347115C482.22 1.29395 481.27 3.18761 481.066 4.67549C480.387 9.40966 480.794 14.1438 480.659 18.878C480.591 20.704 481.338 21.0422 482.967 20.4335C492.27 17.1872 497.566 20.9746 497.498 30.7134C497.498 33.4863 497.362 36.2591 497.43 39.032C497.498 41.5344 497.906 43.9014 500.893 44.7807C501.708 44.9835 502.523 45.3893 502.183 46.4714C501.912 47.3506 501.029 47.0801 500.418 47.0801C496.548 46.9449 492.609 46.9449 488.603 46.9449V46.9449ZM266.973 41.3315C269.485 41.7373 272.676 41.8725 274.102 45.1188C275.392 47.9593 274.102 51.4085 271.047 53.9785L263.102 60.6739C261.201 62.2971 259.164 63.041 256.719 61.8237C254.75 60.8092 252.985 61.1474 251.355 62.7029C250.269 63.785 248.911 64.3937 247.281 64.1908C244.497 63.8526 243.343 61.4179 244.972 59.1861C246.263 57.36 248.164 56.1427 249.997 54.993C252.713 53.2345 254.682 51.0704 255.361 47.6888C256.312 43.7662 260.929 41.2639 266.973 41.3315V41.3315ZM561.597 38.2205C561.665 42.6165 559.56 44.7807 556.776 46.3362C550.801 49.6501 542.789 46.9448 540.073 40.5875C537.492 34.5007 537.968 28.6169 542.042 23.274C545.097 19.2161 549.443 18.3369 554.196 19.2161C557.999 19.8925 561.733 24.2885 562.548 28.6168C562.955 30.7134 561.326 30.5781 560.171 30.5781C555.894 30.7134 551.616 30.6458 547.338 30.7134C543.671 30.781 542.924 31.5926 543.739 35.0418C544.554 38.491 545.98 41.602 549.85 42.7517C553.789 43.9691 557.116 43.0222 559.832 39.8436C560.103 39.4378 560.511 39.0997 561.597 38.2205V38.2205ZM549.986 28.0758C550.665 28.0758 551.344 28.1434 552.023 28.0758C553.517 27.8729 555.622 28.5492 555.894 26.2498C556.165 23.9503 554.536 22.7329 552.499 22.1243C550.937 21.6509 549.307 21.7861 547.813 22.4624C546.048 23.274 544.418 24.559 544.622 26.5203C544.893 28.7521 547.202 27.67 548.628 28.0082C549.103 28.2111 549.579 28.0758 549.986 28.0758ZM61.7062 45.9981C67.3421 44.172 66.5273 39.776 66.5952 35.6505L66.5952 26.3174C66.5952 24.4914 66.1198 23.1388 63.947 23.1388C63.0643 23.1388 61.91 23.0711 61.8421 21.7862C61.7741 20.5012 62.7248 19.7572 63.8112 19.8249C66.6631 19.9601 66.731 18.2017 67.0026 16.1052C67.7495 9.88311 69.9902 4.47263 76.1014 1.5645C78.8174 0.279511 81.6014 -0.126263 84.5212 0.414785C86.3545 0.752939 88.052 1.83502 87.5088 3.93158C86.9656 6.02814 85.1323 6.23104 83.2989 5.41947C79.9718 3.93159 76.7125 3.66107 74.0643 6.50157C71.0767 9.74786 70.6013 13.941 70.7371 18.1341C70.805 19.622 72.0273 19.8249 73.3174 19.7572C74.268 19.6896 75.1508 19.6896 76.1014 19.7572C76.8483 19.8249 77.8668 19.6896 78.0026 20.7717C78.1384 21.8538 77.4594 22.4625 76.4409 22.733C76.2372 22.8006 75.9656 22.8683 75.7619 22.8683C70.873 23.8827 70.8729 23.8827 70.8729 28.8198C70.8729 31.7279 70.805 34.5684 70.8729 37.4765C70.9408 40.6552 70.873 43.8339 74.8791 44.9836C75.3545 45.1189 76.0335 45.5246 75.694 46.2009C75.5582 46.5391 74.947 46.8096 74.6075 46.8096C70.6013 46.8772 66.5952 46.8096 62.589 46.8096C62.1816 46.5391 61.9778 46.2686 61.7062 45.9981V45.9981Z" fill="#212529"/>
<path d="M79.9719 46.1332C85.8794 43.8338 84.6571 39.032 84.7251 34.7036C84.7251 32.4041 84.6571 30.1047 84.725 27.8052C84.793 25.3705 84.793 23.0711 81.33 23.0711C80.5152 23.0711 79.7003 22.6653 79.904 21.5155C80.0398 20.5687 80.7868 19.8924 81.5337 19.96C84.793 20.2306 84.793 18.134 85.0646 15.8345C86.2868 6.29858 91.7868 0.617579 99.7992 0.279424C101.293 0.211793 102.855 0.211784 104.145 1.15862C105.231 1.97019 106.114 2.91703 105.435 4.33728C104.824 5.62227 103.602 6.02806 102.244 5.75754C101.904 5.6899 101.565 5.55464 101.225 5.41938C97.8979 3.86387 94.6387 3.66096 91.9905 6.5691C89.0028 9.81538 88.5275 14.0085 88.7312 18.2693C88.7991 19.3514 89.614 19.8248 90.7004 19.8248C91.651 19.8248 92.5337 19.7571 93.4843 19.8248C94.435 19.8924 95.8609 19.3514 95.9288 20.9745C95.9967 22.4624 94.7066 23.0711 93.5522 22.9358C88.4596 22.1242 88.6633 25.3029 88.7991 28.7521C88.9349 31.8631 88.7991 34.9741 88.7991 38.0851C88.867 41.0609 89.0028 43.969 92.6695 44.9835C93.2127 45.1188 93.8239 45.5245 93.6881 46.2008C93.5522 46.9448 92.8732 46.9448 92.33 46.9448L80.5831 46.9448C80.4473 46.6066 80.2436 46.3361 79.9719 46.1332V46.1332ZM523.301 33.6891C523.369 32.2012 523.505 30.7133 523.573 29.2254C523.912 24.4913 523.912 24.4236 519.227 23.3415C518.684 23.2063 517.869 23.2739 517.937 22.53C518.005 22.0566 518.48 21.5155 518.955 21.3126C523.573 19.2161 524.727 15.0229 525.61 10.6269C525.813 9.68008 525.745 8.1922 527.103 8.25983C528.462 8.39509 528.122 9.81536 528.19 10.8298C528.258 12.7911 528.326 14.7524 528.19 16.7137C528.054 19.1484 529.141 20.0953 531.517 19.96C533.147 19.8924 534.776 19.96 536.406 19.96C537.085 19.96 537.9 20.0276 538.036 20.9068C538.171 21.7184 537.628 22.1918 537.017 22.53C535.32 23.4092 533.418 23.4092 531.585 23.3415C529.141 23.2739 527.986 24.2884 528.122 26.8583C528.258 30.1723 528.122 33.5538 528.19 36.8677C528.19 41.8048 529.48 42.9545 534.369 42.8193C535.32 42.7516 536.881 41.6695 537.357 43.225C537.764 44.5777 536.474 45.5245 535.32 46.1332C532.604 47.6887 529.752 47.5534 527.036 46.1332C524.591 44.8482 523.437 42.6164 523.369 39.9111L523.369 33.6891L523.301 33.6891ZM592.628 13.1293C593.511 11.3032 594.122 10.2211 594.666 9.13904C596.974 4.20198 597.042 4.13434 602.474 4.54012C603.153 4.60775 603.968 4.33723 604.172 5.28407C604.308 5.89275 603.764 6.2309 603.289 6.63669C599.69 9.9506 599.826 17.8634 603.493 20.9745C603.968 21.3802 604.443 21.786 604.308 22.3947C604.104 22.9358 603.629 23.2739 602.95 23.2739L595.616 23.2739C595.073 23.2739 594.394 23.2739 594.19 22.5976C594.054 21.9213 594.598 21.6508 595.073 21.3126C597.517 19.6218 599.351 13.2645 598.061 10.6945C597.382 9.40956 596.77 10.1535 596.363 10.8974C595.616 12.3177 594.937 13.8056 594.258 15.2935C593.851 16.105 593.579 17.1195 592.493 17.1871C591.338 17.2548 591.067 16.2403 590.591 15.4287C589.641 13.6703 588.758 11.8443 586.993 10.2211L586.993 18.6074C586.993 20.2305 588.419 20.5687 589.573 21.0421C590.252 21.3126 590.795 21.6508 590.659 22.53C590.456 23.4768 589.641 23.3415 589.03 23.4092L582.104 23.4092C581.425 23.4092 580.61 23.4768 580.406 22.5976C580.27 21.7184 581.085 21.4479 581.696 21.3126C583.869 20.7716 584.141 19.0808 584.141 17.3224C584.209 15.2258 584.141 13.1969 584.141 11.1003C584.141 9.20667 583.665 7.71878 581.764 6.90721C581.017 6.56905 579.999 6.29854 580.202 5.3517C580.474 4.06672 581.696 4.81066 582.579 4.67539C586.789 3.93145 589.369 5.55459 590.591 9.68008C591.067 10.6269 591.746 11.5738 592.628 13.1293V13.1293ZM504.289 46.9448C506.054 44.4424 509.11 44.51 509.178 41.7372C509.381 37.003 509.721 32.3365 508.974 27.6699C508.906 27.467 508.77 27.2641 508.702 27.0613C508.431 25.5057 505.443 25.2352 506.19 23.815C507.412 21.7184 510.06 20.7039 511.622 18.6074C511.826 18.3369 512.776 18.2692 513.184 18.4045C514.202 18.8779 514.066 19.96 513.931 20.8392C513.387 25.9791 513.591 31.1867 513.591 36.3267C513.591 39.9111 513.455 43.6308 517.869 45.1863C518.276 45.3216 518.684 45.7274 518.48 46.2684C518.276 47.0124 517.597 46.9447 517.054 46.9447L504.289 46.9448ZM570.221 4.54012C571.239 4.54012 572.326 4.47249 573.344 4.54012C575.042 4.67539 577.554 3.45803 578.165 4.94591C578.912 6.90721 578.301 9.47719 578.233 11.7766C578.233 12.3853 577.758 12.9264 577.079 12.7911C576.74 12.7235 576.332 12.2501 576.196 11.9119C575.993 11.3709 576.128 10.7622 575.993 10.2211C575.653 8.598 575.246 6.70432 573.141 7.04248C571.172 7.38063 572.054 9.2743 571.986 10.4917C571.851 12.6559 571.919 14.8877 571.851 17.0519C571.851 18.7426 572.19 20.2305 574.091 20.9068C574.838 21.1773 575.789 21.4479 575.517 22.4623C575.246 23.4092 574.227 23.2063 573.412 23.2063L566.826 23.2063C566.079 23.2063 565.06 23.4768 564.925 22.2594C564.789 21.3802 565.536 21.1097 566.215 20.9068C568.252 20.2981 568.727 18.675 568.795 16.849C568.863 14.3466 568.931 11.7766 568.931 9.27429C568.931 8.32746 569.067 7.24537 567.844 7.04248C566.69 6.77195 565.875 7.44827 565.4 8.53037C565.332 8.73326 565.196 8.93615 565.128 9.13904C564.449 10.2888 565.604 12.9264 563.499 12.7235C561.394 12.5206 562.412 10.0859 562.344 8.59798C562.073 4.20197 562.141 4.20198 566.351 4.40488C567.641 4.47251 568.863 4.40488 570.153 4.40488L570.221 4.54012ZM516.647 9.07141C516.443 11.3709 515.221 12.5882 513.116 12.6558C511.011 12.6558 509.517 11.5061 509.517 9.34193C509.517 7.17774 510.807 6.02802 513.048 5.96038C515.221 5.89275 516.375 7.04248 516.647 9.07141V9.07141Z" fill="#212529"/>
</svg>
