<svg width="544" height="97" viewBox="0 0 544 97" fill="none" xmlns="http://www.w3.org/2000/svg">
<path d="M50.8016 76.616C54.3294 71.6957 56.4462 65.3696 56.4462 56.9348C56.4462 48.5001 54.3294 42.174 50.8016 37.2537C47.2737 32.3334 42.3346 30.2247 35.9844 30.2247C29.6342 30.2247 24.6952 32.3334 21.1673 37.2537C17.6394 42.174 15.5227 48.5001 15.5227 56.9348C15.5227 65.3696 17.6394 71.6957 21.1673 76.616C24.6952 81.5363 29.6342 83.645 35.9844 83.645C42.3346 83.645 47.2737 80.8334 50.8016 76.616ZM60.6796 87.8624C55.035 93.4856 46.5681 97.0001 35.9844 97.0001C25.4008 97.0001 16.9339 94.1885 11.2892 87.8624C3.52789 80.8334 0 70.2899 0 56.9348C0 42.8769 3.52789 33.0363 11.2892 26.0073C16.9339 20.3841 25.4008 16.8696 35.9844 16.8696C46.5681 16.8696 55.035 19.6812 60.6796 26.0073C68.441 33.0363 71.9689 43.5798 71.9689 56.9348C71.9689 70.2899 68.441 80.8334 60.6796 87.8624Z" fill="#212529"/>
<path d="M105.837 18.2754C106.542 18.2754 107.954 18.2754 108.659 18.2754V30.2247C107.954 30.2247 106.542 30.2247 104.426 30.2247C102.309 30.2247 100.898 30.9276 100.192 31.6305C99.4867 32.3334 98.7811 33.7392 98.7811 34.4421V39.3623H108.659V49.9058H98.7811V94.8913H83.964V49.9058H76.9082V39.3623H84.6696V35.8479C84.6696 30.2247 85.3751 26.0073 87.4919 23.1957C89.6086 19.6812 94.5476 18.2754 103.015 18.2754C104.426 18.2754 105.131 18.2754 105.837 18.2754Z" fill="#212529"/>
<path d="M141.115 18.2754C141.821 18.2754 143.232 18.2754 143.937 18.2754V30.2247C143.232 30.2247 141.821 30.2247 139.704 30.2247C137.587 30.2247 136.176 30.9276 135.471 31.6305C134.765 32.3334 134.059 33.7392 134.059 34.4421V39.3623H143.937V49.9058H134.059V94.8913H119.242V49.9058H112.187V39.3623H119.948V35.8479C119.948 30.2247 120.653 26.0073 122.77 23.1957C124.887 19.6812 129.826 18.2754 138.293 18.2754C138.998 18.2754 140.41 18.2754 141.115 18.2754Z" fill="#212529"/>
<path d="M177.1 58.3406H148.171V72.3986H177.1V58.3406Z" fill="#212529"/>
<path d="M198.973 18.9783L208.851 62.558L210.968 74.5073L213.084 62.558L222.257 18.9783H238.485L247.658 62.558L249.774 74.5073L251.891 62.558L262.475 18.9783H278.703L256.83 94.1884H242.013L232.841 50.6087L230.018 35.8478L227.196 50.6087L218.729 94.1884H203.912L182.039 18.9783H198.973Z" fill="#212529"/>
<path d="M326.682 39.3623C329.505 40.7681 331.621 42.1739 333.738 44.9855C335.149 47.0942 335.855 49.2029 336.56 51.3116C336.56 53.4203 337.266 56.9348 337.266 61.8551V94.8913H322.449V61.1522C322.449 58.3406 321.743 55.529 321.038 54.1232C319.626 51.3116 317.51 49.9058 313.276 49.9058C309.748 49.9058 306.221 51.3116 304.809 53.4203C302.693 56.2319 301.987 59.7464 301.987 64.6667V94.8913H287.17V19.6812H301.987V46.3913C304.104 42.8768 306.221 40.7681 309.043 39.3623C311.865 37.9565 314.687 37.2536 317.51 37.2536C321.038 37.2536 323.86 37.9565 326.682 39.3623Z" fill="#212529"/>
<path d="M350.672 38.6594H365.489V94.1884H350.672V38.6594ZM365.489 32.3333H350.672V18.9783H365.489V32.3333Z" fill="#212529"/>
<path d="M373.956 49.9057V39.3622H381.717V23.8984H395.829V39.3622H405.001V49.9057H395.829V79.4274C395.829 81.5361 395.829 82.9419 396.535 83.6448C397.24 84.3477 398.651 84.3477 402.179 84.3477C402.885 84.3477 402.885 84.3477 403.59 84.3477C404.296 84.3477 404.296 84.3477 405.001 84.3477V94.8912H397.946C390.89 94.8912 386.656 94.1883 383.834 91.3767C382.423 89.9709 381.717 87.1593 381.717 83.6448V49.2028L373.956 49.9057Z" fill="#212529"/>
<path d="M429.696 52.7174C427.579 54.8261 426.168 57.6377 425.463 61.1522H450.863C450.863 57.6377 449.452 54.1232 446.63 52.0145C444.513 49.9058 441.691 49.2029 438.163 49.2029C434.635 49.2029 431.813 50.6087 429.696 52.7174ZM451.569 40.0653C455.802 41.4711 458.625 44.2826 461.447 48.5C463.564 52.0145 464.975 55.529 465.681 59.7464C466.386 62.558 466.386 66.0725 466.386 70.9928H425.463C425.463 76.616 427.579 80.8334 431.107 82.9421C433.224 84.3479 436.046 85.0508 438.869 85.0508C442.397 85.0508 445.219 84.3479 446.63 82.2392C448.041 81.5363 448.747 80.1305 449.452 78.7247H464.269C463.564 82.2392 462.153 85.0508 458.625 88.5653C453.686 94.1884 446.63 97 437.457 97C429.696 97 423.346 94.8913 417.701 89.9711C412.057 85.7537 409.234 78.0218 409.234 67.4783C409.234 57.6377 412.057 50.6087 416.996 44.9855C421.935 40.0653 428.991 37.2537 436.752 37.2537C443.102 37.2537 447.336 37.9566 451.569 40.0653Z" fill="#212529"/>
<path d="M498.843 0V7.02899H486.848V40.7681H478.381V7.02899H465.681V0H498.843Z" fill="#212529"/>
<path d="M531.3 0H544V40.7681H535.533V13.3551C535.533 12.6522 535.533 11.2464 535.533 9.84058C535.533 8.43478 535.533 7.02899 535.533 6.32609L527.772 40.7681H519.305L511.544 6.32609C511.544 7.02899 511.544 8.43478 511.544 9.84058C511.544 11.2464 511.544 12.6522 511.544 13.3551V40.7681H503.782V0H516.483L524.244 32.3333L531.3 0Z" fill="#212529"/>
</svg>
