<svg width="350" height="280" viewBox="0 0 350 280" fill="none" xmlns="http://www.w3.org/2000/svg">
<path d="M118.741 1.19482C117.348 1.86447 115.118 3.95715 113.911 5.96613C111.681 9.31442 111.588 9.98407 112.146 18.2711C112.703 27.6463 111.402 38.6956 107.686 56.6926L105.643 66.6537L99.5111 67.156C87.6199 68.0768 39.8692 69.4998 37.0822 68.9975C35.5958 68.7464 31.694 66.8212 28.4425 64.7285C21.7536 60.4594 18.1305 59.9572 13.8571 62.7195C9.30502 65.6493 8.46892 73.0155 12.1849 78.3727C13.7642 80.7165 20.0814 83.5626 23.6117 83.5626C25.0052 83.5626 30.5792 82.6418 36.0603 81.4699C44.0497 79.8795 50.5527 79.2935 69.6901 78.5401C82.6962 77.9542 95.5164 77.7868 98.1176 78.1216L102.856 78.6239L101.09 87.5805C100.161 92.5192 97.6531 102.564 95.6093 109.93C93.4726 117.297 90.4998 128.932 88.8276 135.879L85.7619 148.436L67.2747 149.44C57.1486 149.942 45.4432 150.361 41.3556 150.361H33.9236L40.4266 147.598C50.7385 143.246 66.2528 139.395 70.9908 139.981C79.7234 141.153 86.8767 137.805 87.8986 132.029C88.6418 128.095 84.8329 123.742 80.6524 123.742C77.0293 123.742 45.3503 133.285 31.9727 138.391C19.524 143.162 2.15171 151.868 0.944005 153.876C-0.635298 156.555 -0.170797 160.992 1.87301 162.666C3.91681 164.34 3.35941 164.34 41.3556 161.494C67.5534 159.569 81.6743 158.899 82.2317 159.652C82.9749 160.824 76.4719 185.518 72.3843 196.735C68.9469 206.193 68.2966 210.211 69.5973 213.141C72.1985 218.833 82.6962 220.507 90.4069 216.406C92.7294 215.15 95.0519 213.56 95.5164 212.89C96.6312 210.965 106.014 202.427 106.943 202.427C108.615 202.427 107.779 208.453 105.457 213.309C102.298 220.089 102.391 223.437 105.828 226.116C111.681 230.552 120.599 229.464 122.55 224.023C123.201 222.349 123.479 215.987 123.294 207.951L123.108 194.726L127.66 190.959C130.168 188.95 133.42 186.69 134.906 186.02L137.507 184.764V190.959C137.507 199.162 138.715 200.752 145.218 200.752C154.322 200.752 157.202 197.404 155.994 188.364C155.623 185.769 155.251 181.584 155.251 179.072C155.158 175.054 155.437 174.385 158.038 172.376C169.744 163.419 171.137 161.159 168.071 155.802C166.028 152.119 165.842 149.775 167.514 147.598C169.372 145.422 170.487 146.51 172.159 151.951C175.039 161.159 176.897 199.329 174.667 204.519C173.088 208.202 173.274 215.569 175.039 217.912C178.569 222.767 188.974 222.433 193.712 217.326C197.149 213.643 196.592 208.956 191.854 202.845C188.788 198.827 188.231 197.153 186.28 186.773C183.586 172.041 181.728 157.308 182.564 156.555C182.935 156.22 189.16 155.802 196.499 155.718C209.412 155.383 219.538 156.388 220.653 158.146C221.025 158.564 219.817 161.075 217.959 163.754C208.204 178.235 204.488 189.033 207.182 194.893C209.784 200.501 213.407 200.166 228.457 193.051C254.004 180.998 263.48 172.292 260.879 163.335C259.95 160.155 256.605 157.811 248.709 154.965C242.206 152.621 240.069 151.114 241.091 149.691C242.206 148.017 259.299 149.105 266.639 151.282C276.021 154.044 275.743 153.458 272.305 161.996C267.66 173.129 263.108 186.69 262.365 191.294C261.622 196.735 263.294 202.008 266.36 203.85C271.748 207.03 278.437 204.687 291.071 195.228C299.99 188.448 302.405 187.61 301.569 191.294C298.596 205.189 298.596 207.533 302.034 209.207C305.192 210.714 312.16 210.295 314.854 208.453C317.548 206.696 317.827 203.682 316.433 193.637C315.783 189.033 315.969 187.778 319.499 178.737C321.543 173.297 324.144 165.177 325.073 160.74C327.302 150.947 328.975 146.175 330.461 145.757C332.505 145.171 332.876 159.82 331.669 188.615C331.018 204.268 330.368 225.781 330.275 236.412C330.089 252.232 329.718 256.501 328.417 260.101C326.095 266.379 326.745 274.917 329.718 277.01C334.27 280.358 341.423 280.023 345.325 276.256C347.462 274.164 347.648 273.494 347.183 268.137C346.997 264.872 345.882 260.519 344.768 258.259C342.91 254.325 342.817 253.153 342.631 197.572C342.352 131.192 342.817 119.054 346.161 112.525C351.642 101.643 349.134 91.0962 341.052 91.0962C337.336 91.0962 330.833 94.3608 329.346 97.0394C327.581 99.9691 327.581 105.41 329.16 108.926C330.368 111.353 330.089 112.86 326.466 126.253C321.914 142.66 319.22 150.193 316.805 153.039C315.411 154.714 314.947 154.881 313.646 153.96C311.324 152.202 310.395 147.598 310.209 137.135C310.116 130.355 310.487 125.751 311.602 121.566C314.296 111.437 311.138 105.745 303.241 106.331C298.596 106.666 296.46 109.428 295.716 115.873C295.345 119.557 293.858 123.156 289.864 130.439C286.891 135.712 283.732 140.902 282.803 141.906L281.038 143.748L274.071 142.241C270.262 141.404 263.48 140.232 259.021 139.646L250.938 138.642L252.611 135.545C253.633 133.871 256.42 130.104 258.835 127.174C262.179 123.156 264.409 121.398 267.939 119.975C273.234 117.882 276.207 115.288 277.694 111.772C279.366 107.921 278.901 103.317 276.765 100.806C273.327 96.7883 263.944 98.4624 259.764 103.82C256.048 108.507 246.015 123.156 241.556 130.439C237.096 137.637 233.752 142.325 230.036 146.678C228.735 148.101 228.085 148.101 220.467 147.264C216.008 146.678 211.549 146.092 210.62 145.841C209.04 145.338 208.948 145.255 210.527 143.748C213.221 141.069 220.653 137.135 226.599 135.377C233.102 133.368 238.118 128.932 239.883 123.491C240.905 120.31 240.905 120.059 238.397 118.217C233.195 114.116 222.325 116.627 218.423 122.905C216.937 125.249 213.5 128.011 205.975 132.615C194.176 139.897 188.695 142.409 185.072 141.99C182.657 141.739 182.564 141.488 182.285 136.465C182.099 133.619 182.378 126.253 182.843 120.143C183.586 110.684 184.05 108.424 186.187 104.657C187.58 102.146 188.974 98.3787 189.253 96.2023C189.717 92.7703 189.438 91.9333 187.395 89.7569C185.444 87.7479 184.329 87.3294 180.892 87.3294C172.066 87.3294 169.651 90.2591 169.837 100.89C170.022 106.666 169.558 109.679 168.257 113.027C167.235 115.455 164.077 124.83 161.197 133.787C158.317 142.743 155.902 150.193 155.716 150.277C155.623 150.361 154.322 150.193 152.836 149.859C148.841 148.854 148.377 145.841 149.027 127.174C149.399 114.534 149.863 110.684 150.885 109.595C153.3 107.168 154.508 100.304 153.115 96.5372C151.535 92.1007 148.377 90.6777 143.453 92.1007C138.343 93.6911 136.392 96.6209 136.485 102.397C136.485 105.829 135.278 110.935 132.305 119.808C130.075 126.755 127.474 135.963 126.545 140.232L124.966 148.017H121.621H118.184L117.534 139.981C116.791 131.108 117.627 83.9811 118.556 79.4609L119.206 76.6986L136.485 77.2845C145.961 77.5357 169 78.3727 187.673 79.0424C206.346 79.712 229.014 80.2143 238.025 80.2143C252.332 80.2143 254.933 80.4654 258.742 81.8884C267.103 85.0693 274.907 83.4789 277.415 77.9542C279.366 73.7688 278.344 69.1649 274.535 65.5656C271.934 62.9706 271.005 62.6358 267.01 62.6358C263.48 62.6358 261.343 63.3055 256.327 66.0678L250.102 69.4161L200.587 69.4998C156.087 69.5835 128.31 68.7464 122.457 67.156C120.228 66.57 120.321 63.0543 123.015 44.9736C124.78 33.6732 125.895 29.153 127.567 26.0558C132.862 16.6806 132.769 7.13803 127.288 2.19931C124.315 -0.395599 122.457 -0.646729 118.741 1.19482ZM105.364 128.932C105.643 130.439 106.107 135.377 106.479 139.814L107.036 148.017H102.391C98.4892 148.017 97.746 147.766 98.0247 146.51C101.462 131.61 102.484 127.425 102.856 126.839C103.785 125.416 104.899 126.421 105.364 128.932ZM301.012 145.338C301.105 147.096 301.197 148.687 301.105 149.021C301.012 149.524 298.41 148.854 291.907 146.761C291.164 146.51 292.186 144.418 295.159 140.4L299.618 134.373L300.268 138.307C300.64 140.483 300.919 143.664 301.012 145.338ZM138.25 144.92C138.529 148.687 138.436 148.854 136.021 148.854C133.698 148.854 133.605 148.687 134.163 145.673C134.442 143.999 134.72 142.074 134.72 141.488C134.72 140.818 135.463 140.483 136.392 140.651C137.6 140.818 138.065 141.906 138.25 144.92ZM297.11 159.401L301.941 160.657V167.353V174.134L294.88 180.077C287.262 186.522 283.361 188.782 279.087 189.201L276.393 189.452L276.579 183.844C276.672 177.733 279.273 169.697 283.546 161.996C286.519 156.555 285.962 156.639 297.11 159.401ZM106.85 175.138V191.461L104.435 193.135C100.254 196.065 90.4998 200.083 88.1773 199.748C86.3193 199.581 86.0406 199.078 86.2264 196.986C86.598 193.805 92.6365 166.265 93.9371 161.996L94.8661 158.899H100.812H106.85V175.138ZM138.436 166.6V174.385L133.141 177.482C130.168 179.156 127.753 180.495 127.66 180.412C127.381 180.244 129.889 163.67 130.633 160.74C131.004 159.234 131.655 158.899 134.72 158.899H138.436V166.6ZM241.648 165.01C244.435 166.516 246.665 168.19 246.665 168.693C246.665 170.534 235.703 177.231 229.2 179.407C221.768 181.835 221.117 181.918 221.117 180.161C221.117 177.984 225.855 167.856 228.735 164.172C231.151 160.908 231.522 160.74 234.031 161.494C235.517 161.996 238.954 163.587 241.648 165.01Z" fill="#212529"/>
<path d="M147.078 40.4526C143.083 42.043 141.876 44.3868 142.34 49.9115C142.712 53.9294 143.269 54.9339 146.149 57.3614C153.209 63.1372 161.663 59.203 161.663 50.1626C161.663 41.1223 155.625 37.1043 147.078 40.4526Z" fill="#212529"/>
<path d="M172.159 47.4852C169 49.3267 168.164 51.4194 169.279 55.9396C170.115 59.6227 172.995 61.7991 176.99 61.7991C181.635 61.7991 184.608 60.4598 186.28 57.6974C188.416 53.9306 188.045 51.0846 184.979 48.3222C181.635 45.3925 176.711 45.0577 172.159 47.4852Z" fill="#212529"/>
</svg>
