<svg width="32" height="32" viewBox="0 0 32 32" fill="none" xmlns="http://www.w3.org/2000/svg">
<g clip-path="url(#clip0_991_2144)">
<path fill-rule="evenodd" clip-rule="evenodd" d="M19.3673 3.13365C20.7657 2.59991 22.2943 2.50852 23.7464 2.87184C24.9011 3.16076 25.963 3.72614 26.8435 4.51354C27.9264 4.11551 28.9535 3.57683 29.8981 2.91051L30.6667 4.00006L31.9622 4.31555C31.5054 6.19108 30.5898 7.91979 29.3022 9.3484C29.3222 9.56183 29.3333 9.77963 29.3333 10.0001C29.3333 18.1333 25.4175 24.1001 19.7931 27.0937C14.2012 30.0701 7.05451 30.0371 0.685825 26.4989C0.146077 26.1991 -0.117184 25.5679 0.0495472 24.9733C0.216279 24.3788 0.76938 23.9766 1.38634 24.0011C3.63543 24.0906 5.86184 23.6434 7.88633 22.7107C5.88213 21.474 4.43924 20.0057 3.43609 18.4218C2.09791 16.3089 1.59275 14.0706 1.50139 12.0606C1.41029 10.0564 1.72865 8.25192 2.06332 6.95788C2.23145 6.30776 2.40591 5.77806 2.54039 5.4061C2.6077 5.21991 2.66523 5.07261 2.70727 4.96884C2.7283 4.91693 2.74547 4.87585 2.75809 4.84618L2.77352 4.81028L2.77746 4.80127C2.78685 4.7797 2.79685 4.75831 2.80745 4.73711L4.00002 5.33339L5.09116 4.56711C6.31188 6.30535 7.94354 7.71471 9.84082 8.66968C11.35 9.42928 12.9899 9.88262 14.6663 10.0086C14.6565 8.52906 15.096 7.08094 15.9275 5.85614C16.7682 4.61773 17.9689 3.66739 19.3673 3.13365ZM4.53954 8.0582C4.29462 9.12669 4.09904 10.4817 4.16531 11.9395C4.24061 13.5962 4.65212 15.3579 5.68894 16.995C6.7204 18.6236 8.4214 20.2097 11.2082 21.4483C11.6506 21.6449 11.9517 22.0659 11.9947 22.5481C12.0378 23.0303 11.8161 23.498 11.4155 23.7699C9.93427 24.7754 8.31228 25.5318 6.61348 26.021C10.8404 27.0979 15.076 26.5836 18.5402 24.7397C23.2492 22.2334 26.6667 17.2001 26.6667 10.0001C26.6667 9.72055 26.6366 9.42928 26.5823 9.13618C26.5018 8.70123 26.6422 8.25465 26.9571 7.94405C27.2541 7.65114 27.5292 7.33894 27.7809 7.01006C27.4789 7.12147 27.1733 7.22377 26.8645 7.31677C26.3623 7.46798 25.8181 7.31077 25.4739 6.91504C24.8502 6.19782 24.0212 5.68948 23.0991 5.45875C22.177 5.22803 21.2063 5.28607 20.3182 5.62501C19.4302 5.96396 18.6677 6.56746 18.1338 7.35389C17.5999 8.14033 17.3205 9.07175 17.3332 10.0222L17.3335 10.0401H17.3333V11.3734C17.3333 12.0963 16.7572 12.6875 16.0346 12.7063C13.4716 12.7727 10.932 12.2043 8.6419 11.0516C7.11448 10.2828 5.72968 9.27003 4.53954 8.0582Z" fill="white"/>
</g>
<defs>
<clipPath id="clip0_991_2144">
<rect width="32" height="32" fill="white"/>
</clipPath>
</defs>
</svg>
