<svg width="469" height="127" viewBox="0 0 469 127" fill="none" xmlns="http://www.w3.org/2000/svg">
<path d="M0.660715 1.17811C0.227608 1.83785 -0.0611299 2.49759 0.0110546 2.66252C0.155424 3.03952 7.83104 19.5566 11.7771 28.039C13.5096 31.7382 15.0014 34.9662 15.0976 35.2254C15.1939 35.4846 16.9503 39.2545 19.0196 43.59C21.0649 47.9254 25.0109 56.4078 27.8261 62.4633L32.9031 73.4197V99.4558V125.492L33.6971 126.246L34.4912 127H43.2736H52.0561L52.826 126.222L53.596 125.445V99.6208V73.8202L56.8202 66.7751C58.5767 62.8874 60.9829 57.7037 62.1378 55.2533C63.2928 52.7792 65.8433 47.3364 67.7923 43.1187C71.4977 35.1312 73.6152 30.5837 74.7942 28.1096C75.1792 27.3085 75.492 26.6017 75.492 26.531C75.492 26.4603 76.286 24.6696 77.2725 22.5725C82.1089 12.1345 85.1406 5.63136 85.8143 4.19406C86.2234 3.34583 86.5602 2.56828 86.5602 2.49759C86.5602 2.40334 86.1993 1.81429 85.7903 1.17811L84.9962 0L75.6123 0.0235596C64.3274 0.0235596 65.2418 -0.235619 63.5334 3.41651C62.9319 4.71243 61.3438 8.05826 60.0204 10.8386C58.697 13.6189 56.9405 17.3889 56.1225 19.2267C52.9223 26.2954 43.1774 46.8887 43.0571 46.7709C42.8886 46.6059 41.1081 42.7889 33.3603 25.8006C20.9446 -1.39017 22.0754 0.966049 21.0649 0.447685C20.2227 0.0235596 19.5249 0 10.7906 0H1.43068L0.660715 1.17811Z" fill="#212529"/>
<path d="M104.175 0.848236L103.164 1.69648V63.4529V125.209L104.054 126.105L104.945 127H140.098H175.252L176.143 126.105L177.033 125.209V117.08V108.951L176.118 108.08L175.204 107.208L149.723 107.161L124.218 107.09V90.3609V73.6317L147.798 73.561L171.354 73.5139L172.148 72.7599L172.942 72.0059V63.6178V55.2297L172.028 54.3579L171.114 53.4861H147.606H124.098V36.757V20.0278H149.506H174.939L175.974 19.1796L177.033 18.3549V10.0375V1.7436L175.974 0.871803L174.891 0H140.05H105.209L104.175 0.848236Z" fill="#212529"/>
<path d="M198.034 0.94249L196.999 1.86141V63.5707V125.256L197.913 126.128L198.828 127H233.909H268.967L269.905 126.222L270.868 125.468V117.104V108.739L269.953 108.032L269.063 107.326L243.558 107.208L218.053 107.09V90.3609V73.6317L241.633 73.561L265.189 73.5139L265.983 72.7599L266.777 72.0059V63.6178V55.2297L265.863 54.3579L264.949 53.4861H241.441H217.933V36.757V20.0278H243.39H268.847L269.857 19.1796L270.868 18.3314V10.0139V1.67291L269.809 0.848236L268.774 0H233.909H199.044L198.034 0.94249Z" fill="#212529"/>
<path d="M293.803 0.895363L292.768 1.79073V10.1553V18.5434L293.803 19.3445L294.814 20.1456L316.854 20.2635L338.918 20.3813L336.464 24.8581C335.117 27.3085 331.098 34.7777 327.537 41.3987L321.089 53.4861H310.574H300.035L299.169 54.5228L298.303 55.5596V63.7827V72.0059L299.097 72.7599L299.891 73.5139H304.968C307.783 73.5139 310.117 73.5846 310.165 73.6788C310.237 73.7967 309.587 75.1397 308.721 76.6948C307.879 78.2499 305.064 83.4336 302.465 88.2403C299.867 93.0234 297.124 98.0657 296.378 99.4323C295.608 100.799 293.947 103.838 292.672 106.195L290.362 110.483V117.999V125.516L291.301 126.246L292.263 127H328.428H364.616L365.482 126.105L366.373 125.233L366.397 117.01V108.786L365.41 107.891L364.4 106.972H339.881C326.406 106.972 315.386 106.901 315.386 106.784C315.41 106.619 315.892 105.676 322.003 94.2486C330.401 78.5091 332.783 74.0794 332.999 73.7967C333.192 73.5846 335.67 73.5139 343.875 73.5139H354.51L355.28 72.7364L356.05 71.9588V63.7121V55.4653L355.184 54.4757L354.318 53.4861H348.904H343.49L345.607 49.5276C346.738 47.3599 348.326 44.4853 349.072 43.1187C349.842 41.7521 351.815 38.1 353.452 34.9898C355.112 31.8796 356.796 28.7458 357.181 28.039C357.566 27.3321 359.154 24.3868 360.718 21.5358L363.533 16.305L363.509 9.04787L363.485 1.76717L362.619 0.895363L361.729 0H328.259L294.814 0.0235596L293.803 0.895363Z" fill="#212529"/>
<path d="M382.513 1.17811C381.864 2.19128 381.767 2.45046 381.984 2.99239C382.128 3.36939 383.644 6.66809 385.401 10.3673C387.157 14.0666 389.756 19.6273 391.175 22.7375C392.595 25.8477 395.146 31.3141 396.83 34.872C398.514 38.4299 400.68 43.0952 401.642 45.2393C402.605 47.3835 404.169 50.7764 405.131 52.7792C406.094 54.782 408.644 60.2484 410.81 64.9137L414.756 73.3725V99.4323V125.492L415.55 126.246L416.344 127H425.126H433.909L434.679 126.222L435.449 125.445V99.6208V73.7731L438.119 68.0475C440.694 62.5575 442.258 59.141 447.311 48.1846C448.562 45.4514 451.522 39.0425 453.904 33.9295C458.211 24.7167 460.689 19.3681 465.814 8.29388C467.258 5.16011 468.413 2.45046 468.341 2.28553C468.268 2.14416 467.883 1.5551 467.474 0.989609L466.729 0H457.585C448.899 0 448.37 0.0235596 447.479 0.471245C446.83 0.801117 446.397 1.24879 446.084 1.9321C445.819 2.49759 444.399 5.53711 442.908 8.71799C441.416 11.8989 439.202 16.6584 437.975 19.321C436.026 23.5386 433.187 29.6176 426.666 43.425C425.752 45.3336 424.958 46.818 424.862 46.7237C424.765 46.6295 423.201 43.2365 421.373 39.231C414.154 23.3265 411.796 18.19 408.283 10.6265C406.262 6.31466 404.457 2.35622 404.241 1.83785C403.976 1.20167 403.591 0.77755 402.941 0.471245C402.075 0.0235596 401.474 0 392.643 0H383.283L382.513 1.17811Z" fill="#212529"/>
</svg>
